<?xml version="1.0" standalone="no"?>
<!DOCTYPE svg PUBLIC "-//W3C//DTD SVG 20010904//EN"
 "http://www.w3.org/TR/2001/REC-SVG-20010904/DTD/svg10.dtd">
<svg version="1.0" xmlns="http://www.w3.org/2000/svg"
 width="753.000000pt" height="753.000000pt" viewBox="0 0 753.000000 753.000000"
 preserveAspectRatio="xMidYMid meet">
<metadata>
Created by potrace 1.14, written by Peter Selinger 2001-2017
</metadata>
<g transform="translate(0.000000,753.000000) scale(0.100000,-0.100000)"
fill="#000000" stroke="none">
<path d="M5489 6743 c-13 -16 -12 -17 4 -4 9 7 17 15 17 17 0 8 -8 3 -21 -13z"/>
<path d="M3754 6678 c-4 -6 -2 -14 4 -16 7 -2 12 -10 12 -19 0 -10 -7 -13 -22
-9 -13 3 -17 3 -10 0 17 -8 15 -27 -2 -21 -10 4 -13 1 -10 -7 3 -8 14 -12 26
-8 14 3 19 1 14 -6 -11 -18 0 -14 15 5 12 14 12 16 0 8 -10 -5 -12 -4 -7 4 6
9 11 9 24 -1 12 -10 14 -10 8 0 -4 7 -1 12 8 12 20 0 20 14 1 30 -13 11 -15
10 -10 -6 4 -11 0 -9 -8 6 -9 14 -18 24 -21 23 -15 -7 -19 -2 -6 7 9 6 10 10
3 10 -6 0 -15 -5 -19 -12z"/>
<path d="M5310 6651 c0 -7 -4 -9 -10 -6 -5 3 -10 1 -10 -6 0 -7 -3 -9 -7 -6
-7 7 -32 -22 -32 -38 0 -5 4 -2 10 8 5 9 16 17 23 17 17 0 41 28 32 37 -3 3
-6 1 -6 -6z"/>
<path d="M3865 6640 c-4 -6 -12 -8 -18 -4 -7 3 -5 0 4 -8 9 -7 14 -20 11 -28
-3 -8 -2 -12 2 -8 7 6 16 58 10 58 -1 0 -6 -5 -9 -10z"/>
<path d="M2190 6620 c0 -12 28 -25 36 -17 3 3 -4 10 -15 17 -15 7 -21 7 -21 0z"/>
<path d="M3836 6596 c4 -11 1 -21 -7 -26 -11 -7 -10 -10 4 -16 29 -11 38 9 16
36 -13 17 -17 19 -13 6z"/>
<path d="M3693 6581 c0 -11 5 -18 9 -15 4 3 5 11 1 19 -7 21 -12 19 -10 -4z"/>
<path d="M3797 6571 c-4 -17 -3 -21 5 -13 5 5 8 16 6 23 -3 8 -7 3 -11 -10z"/>
<path d="M3736 6517 c3 -10 9 -15 12 -12 3 3 0 11 -7 18 -10 9 -11 8 -5 -6z"/>
<path d="M3816 6508 c3 -4 11 -5 19 -1 21 7 19 12 -4 10 -11 0 -18 -5 -15 -9z"/>
<path d="M3860 6485 c-5 -17 -8 -30 -9 -39 0 -5 -9 -1 -20 8 -18 16 -18 16
-14 -9 4 -18 1 -25 -11 -25 -9 0 -16 -4 -16 -8 0 -4 -9 -8 -19 -8 -11 0 -17 4
-15 8 3 4 -4 8 -16 8 -18 0 -20 -4 -14 -22 4 -13 7 -30 7 -38 0 -8 4 -20 9
-27 12 -15 1 -36 -14 -27 -6 4 -5 10 3 15 11 7 10 9 -3 9 -20 0 -26 -46 -8
-52 6 -2 1 -9 -10 -16 -15 -9 -19 -9 -18 0 2 6 -9 12 -25 12 -15 1 -32 8 -37
16 -9 13 -11 13 -21 0 -9 -13 -10 -12 -5 3 3 9 2 17 -2 17 -18 0 -32 40 -22
65 6 17 6 25 -1 25 -6 0 -7 5 -3 12 4 7 3 8 -4 4 -6 -4 -9 -13 -5 -21 3 -8 0
-15 -6 -15 -6 0 -11 -7 -11 -15 0 -8 -5 -15 -11 -15 -7 0 -9 -10 -7 -24 5 -23
2 -24 -31 -21 -20 1 -38 4 -41 5 -3 1 -8 2 -13 1 -4 0 -6 5 -5 12 2 6 -4 12
-12 12 -8 0 -20 4 -27 8 -8 5 -11 1 -8 -15 4 -23 4 -23 -14 2 -16 20 -22 22
-34 12 -12 -10 -16 -10 -20 0 -4 10 -6 10 -6 -1 -1 -9 -5 -10 -13 -3 -9 7 -17
6 -25 -3 -10 -11 -7 -13 14 -11 18 2 34 -4 46 -18 l18 -21 -11 23 c-7 15 -7
22 0 22 5 0 10 -7 10 -16 0 -8 4 -13 9 -10 4 3 6 -7 4 -22 -4 -25 -3 -26 10
-9 9 10 21 15 31 11 16 -6 23 -25 9 -23 -20 3 -30 -2 -30 -16 0 -8 4 -12 8 -9
4 2 11 0 14 -6 5 -8 11 -7 21 1 11 9 14 8 14 -2 0 -9 4 -8 13 3 13 18 72 14
61 -3 -3 -5 0 -9 6 -9 7 0 9 -7 6 -16 -3 -8 -2 -12 3 -9 5 3 13 -4 16 -16 6
-17 9 -19 16 -8 8 12 11 12 19 -1 6 -9 10 -10 10 -3 0 6 9 11 19 10 12 -1 17
-6 13 -16 -4 -10 -1 -13 11 -8 12 4 15 0 13 -21 -2 -15 3 -36 10 -46 10 -15
11 -23 2 -33 -9 -11 -8 -13 3 -11 8 2 17 8 21 13 4 6 8 2 8 -8 0 -10 7 -20 15
-23 8 -4 12 -10 9 -15 -3 -5 -9 -7 -14 -4 -5 3 -12 0 -16 -6 -4 -8 -3 -9 4 -5
7 4 12 1 12 -8 0 -8 -6 -17 -12 -20 -7 -4 -3 -4 10 -2 19 4 22 1 16 -17 -3
-12 -11 -29 -18 -37 -6 -9 -3 -8 10 3 13 11 28 15 39 11 13 -5 16 -3 13 7 -3
8 -12 13 -21 11 -12 -2 -14 4 -7 35 5 20 6 42 3 47 -4 6 4 2 16 -9 20 -17 20
-21 7 -31 -9 -6 -13 -14 -9 -17 10 -11 25 -8 18 3 -3 6 -1 10 4 10 6 0 11 8
11 18 1 16 1 16 11 -1 5 -9 8 -21 4 -26 -3 -5 0 -13 7 -17 7 -4 10 -4 6 1 -4
4 2 19 12 33 25 31 25 43 3 35 -17 -6 -17 -5 0 14 9 11 14 23 10 26 -3 4 -1 7
6 7 7 0 10 4 7 9 -3 5 2 19 12 32 10 13 22 32 25 43 4 10 13 16 21 13 8 -3 20
1 26 9 10 11 10 14 0 14 -8 0 -3 10 11 23 15 15 28 20 36 15 8 -7 10 -3 6 11
-5 20 12 28 42 21 20 -5 130 6 144 14 5 3 33 11 63 16 61 12 181 46 218 62 14
7 27 12 30 13 3 0 14 6 25 13 19 12 19 12 -5 8 -24 -5 -41 -7 -135 -22 -22 -3
-44 -9 -50 -14 -28 -21 -152 -20 -139 2 3 5 -3 4 -14 -3 -12 -7 -18 -17 -15
-23 4 -5 1 -6 -7 -1 -20 12 -60 15 -60 4 0 -6 -6 -7 -12 -3 -27 17 -45 11 -44
-14 1 -22 -5 -26 -49 -38 -53 -13 -66 -11 -47 8 7 7 12 20 12 31 0 10 4 16 8
13 5 -3 9 1 9 9 0 13 -3 13 -17 0 -16 -14 -18 -14 -24 0 -9 24 -8 28 9 21 8
-3 14 -2 13 2 -1 4 3 17 10 30 7 12 9 22 5 22 -4 0 -1 5 7 10 12 7 10 9 -7 7
-12 0 -20 -4 -17 -8 2 -4 -3 -13 -12 -20 -14 -11 -18 -11 -28 1 -6 8 -17 15
-25 15 -8 0 -16 6 -19 13 -2 7 2 10 12 6 11 -4 16 -1 16 10 0 9 -4 16 -9 16
-5 0 -12 8 -14 18 -3 9 -6 13 -7 7z m-95 -125 c3 -5 1 -10 -4 -10 -6 0 -11 5
-11 10 0 6 2 10 4 10 3 0 8 -4 11 -10z m-92 -114 c4 -10 1 -13 -9 -9 -7 3 -14
9 -14 14 0 14 17 10 23 -5z m292 4 c-3 -5 -12 -10 -18 -10 -7 0 -6 4 3 10 19
12 23 12 15 0z m-169 -23 c1 -7 5 -20 9 -29 5 -13 2 -18 -11 -18 -9 0 -14 3
-11 7 4 3 2 12 -3 18 -6 7 -7 20 -4 29 7 18 16 14 20 -7z"/>
<path d="M3770 6430 c0 -5 5 -10 10 -10 6 0 10 5 10 10 0 6 -4 10 -10 10 -5 0
-10 -4 -10 -10z"/>
<path d="M4620 6419 c-17 -13 -18 -17 -5 -10 33 17 51 31 40 31 -5 0 -21 -10
-35 -21z"/>
<path d="M2826 6418 c5 -8 0 -9 -14 -6 -12 4 -20 2 -16 -3 3 -5 12 -9 20 -9 8
0 14 -4 14 -10 0 -6 9 -6 23 -1 24 9 127 -23 127 -40 0 -5 9 -9 19 -9 11 0 23
-4 26 -10 7 -12 45 -14 45 -2 0 15 -101 67 -124 64 -14 -2 -26 3 -29 12 -4 10
-15 13 -31 10 -14 -2 -28 0 -31 6 -3 5 -13 10 -21 10 -9 0 -12 -5 -8 -12z"/>
<path d="M4629 6393 c-13 -16 -12 -17 4 -4 9 7 17 15 17 17 0 8 -8 3 -21 -13z"/>
<path d="M3470 6390 c0 -5 5 -10 11 -10 5 0 7 5 4 10 -3 6 -8 10 -11 10 -2 0
-4 -4 -4 -10z"/>
<path d="M3000 6386 c0 -2 7 -7 16 -10 8 -3 12 -2 9 4 -6 10 -25 14 -25 6z"/>
<path d="M3595 6370 c3 -5 8 -10 11 -10 2 0 4 5 4 10 0 6 -5 10 -11 10 -5 0
-7 -4 -4 -10z"/>
<path d="M3635 6370 c-3 -5 -1 -10 4 -10 6 0 11 5 11 10 0 6 -2 10 -4 10 -3 0
-8 -4 -11 -10z"/>
<path d="M3670 6371 c0 -6 4 -13 10 -16 6 -3 7 1 4 9 -7 18 -14 21 -14 7z"/>
<path d="M3096 6350 c5 -4 18 -10 28 -12 25 -4 34 -29 9 -25 -10 1 -23 6 -29
10 -7 4 -16 1 -22 -6 -8 -10 -5 -12 16 -11 15 1 33 -3 40 -9 6 -5 12 -6 12 -1
0 5 5 2 11 -6 8 -12 9 -12 7 5 -2 14 4 21 26 25 l29 5 -36 13 c-44 16 -103 24
-91 12z"/>
<path d="M3256 6345 c-3 -9 -10 -14 -15 -11 -10 7 -8 -41 3 -51 4 -4 14 2 24
12 16 18 16 18 -1 6 -15 -12 -17 -11 -14 5 1 11 6 25 11 32 4 7 6 15 3 18 -2
3 -7 -2 -11 -11z"/>
<path d="M4128 6348 c9 -9 15 -9 24 0 9 9 7 12 -12 12 -19 0 -21 -3 -12 -12z"/>
<path d="M3589 6337 c8 -9 16 -15 19 -12 3 3 13 -1 21 -9 12 -11 21 -12 31 -5
12 8 11 9 -5 7 -11 -2 -20 3 -20 11 0 8 -6 16 -12 19 -7 2 -13 -2 -13 -8 0 -9
-5 -9 -17 1 -16 13 -17 12 -4 -4z"/>
<path d="M3187 6291 c-3 -13 -1 -18 9 -14 7 2 10 11 7 19 -7 19 -10 18 -16 -5z"/>
<path d="M3660 6289 c0 -5 5 -7 10 -4 6 4 18 1 26 -6 12 -10 13 -9 8 5 -7 18
-44 22 -44 5z"/>
<path d="M3896 6135 c-3 -8 -1 -15 4 -15 6 0 10 7 10 15 0 8 -2 15 -4 15 -2 0
-6 -7 -10 -15z"/>
<path d="M3875 6099 c-4 -6 -5 -12 -2 -15 2 -3 7 2 10 11 7 17 1 20 -8 4z"/>
<path d="M3737 5890 c-3 -11 -1 -20 4 -20 6 0 5 -8 -1 -19 -7 -14 -7 -22 2
-27 7 -4 8 -3 4 4 -4 7 -2 12 3 12 6 0 11 -5 11 -12 0 -6 6 -3 14 8 8 10 10
21 5 22 -5 2 -7 8 -4 12 3 5 12 7 19 4 7 -3 18 1 24 9 9 11 8 14 -3 14 -8 0
-12 -4 -9 -9 3 -4 1 -8 -5 -8 -5 0 -11 5 -13 12 -7 21 -45 19 -51 -2z m33 -11
c0 -5 -4 -9 -10 -9 -5 0 -10 7 -10 16 0 8 5 12 10 9 6 -3 10 -10 10 -16z m0
-29 c0 -5 -2 -10 -4 -10 -3 0 -8 5 -11 10 -3 6 -1 10 4 10 6 0 11 -4 11 -10z"/>
<path d="M3850 5870 c0 -5 5 -10 11 -10 5 0 7 5 4 10 -3 6 -8 10 -11 10 -2 0
-4 -4 -4 -10z"/>
<path d="M3860 5829 c0 -5 5 -7 10 -4 6 3 10 8 10 11 0 2 -4 4 -10 4 -5 0 -10
-5 -10 -11z"/>
<path d="M3905 5830 c-3 -6 1 -7 9 -4 18 7 21 14 7 14 -6 0 -13 -4 -16 -10z"/>
<path d="M3699 5803 c-13 -17 -13 -17 6 -3 11 8 22 16 24 17 2 2 0 3 -6 3 -6
0 -17 -8 -24 -17z"/>
<path d="M3729 5703 c-13 -16 -12 -17 4 -4 15 12 17 12 11 -3 -3 -9 -12 -16
-20 -16 -8 0 -11 -6 -7 -17 4 -10 2 -14 -5 -9 -6 3 -14 1 -18 -5 -4 -7 -3 -9
3 -6 5 3 17 -8 27 -24 17 -29 17 -31 0 -44 -11 -7 -22 -11 -26 -9 -4 3 -5 -2
-2 -10 3 -9 10 -16 16 -16 5 0 7 4 3 9 -3 5 -1 12 4 15 23 14 19 -14 -4 -32
-14 -11 -21 -23 -16 -26 5 -3 11 -1 13 6 3 9 6 9 12 0 4 -7 2 -12 -4 -12 -6 0
-8 -4 -5 -10 3 -5 0 -7 -8 -4 -8 3 -14 -2 -14 -11 0 -8 4 -15 9 -15 12 0 5
-50 -8 -61 -9 -7 -9 -20 -3 -45 6 -19 7 -39 4 -44 -3 -6 -1 -10 5 -10 6 0 8
-4 5 -10 -3 -5 -9 -30 -12 -55 -4 -33 -1 -49 11 -60 36 -36 8 -55 -30 -20 -14
13 -30 22 -35 19 -5 -3 3 -16 19 -30 28 -27 25 -27 -20 -5 -15 8 -26 17 -23
20 2 4 -5 7 -16 7 -16 0 -15 -3 9 -23 l27 -23 -26 4 c-17 3 -26 0 -26 -10 0
-8 10 -14 24 -14 13 0 23 -5 23 -12 0 -6 3 -8 7 -5 3 4 12 2 20 -4 7 -6 13 -8
13 -3 0 5 5 2 10 -6 6 -10 10 -11 10 -2 0 6 5 12 11 12 6 0 9 -9 6 -19 -2 -10
-1 -25 3 -32 5 -8 -3 -26 -23 -50 -18 -21 -34 -34 -37 -29 -3 5 -12 5 -20 0
-13 -8 -12 -10 3 -10 11 0 15 -4 11 -12 -5 -7 -3 -8 6 -3 9 6 10 2 5 -16 -4
-13 -4 -21 0 -16 5 4 9 15 10 25 0 10 8 28 17 40 l16 23 4 -26 c3 -14 1 -28
-3 -31 -5 -3 -7 -16 -4 -30 3 -13 7 -35 10 -48 3 -16 0 -28 -11 -34 -13 -7
-13 -10 -1 -21 8 -6 13 -21 10 -31 -3 -11 0 -26 6 -34 16 -19 -8 -37 -54 -40
-37 -3 -53 -12 -42 -22 4 -4 13 -2 21 5 11 9 15 7 19 -8 3 -12 13 -18 31 -18
14 0 23 3 20 8 -3 5 -1 9 4 9 5 0 12 -17 15 -37 10 -63 16 -89 32 -127 12 -28
12 -36 3 -36 -9 0 -8 -3 2 -10 13 -9 13 -11 0 -20 -11 -7 -12 -12 -3 -21 9 -9
8 -16 -6 -28 -9 -9 -11 -12 -4 -8 8 6 7 -4 -4 -32 -15 -38 -33 -55 -33 -31 0
5 -7 7 -15 4 -9 -4 -15 0 -15 10 0 9 -4 16 -10 16 -5 0 -10 -5 -10 -11 0 -7
-5 -8 -12 -3 -15 11 -35 10 -61 -1 -10 -4 -23 -2 -32 5 -8 7 -15 9 -15 5 0 -4
-7 -2 -15 5 -9 7 -18 10 -22 7 -3 -4 -12 -2 -20 4 -9 9 -13 8 -13 0 0 -6 -7
-11 -16 -11 -8 0 -13 -4 -9 -9 3 -5 -3 -11 -12 -14 -16 -3 -16 -5 2 -11 11 -4
29 -12 40 -16 11 -5 40 -11 64 -13 24 -3 46 -9 50 -13 8 -12 34 -11 44 1 5 6
6 0 4 -13 -3 -13 -3 -21 0 -18 3 3 18 -1 33 -9 15 -8 30 -11 34 -8 3 4 6 1 6
-6 0 -7 7 -11 14 -8 10 4 13 1 9 -9 -4 -11 -15 -13 -37 -10 l-31 6 30 -14 c17
-8 33 -12 36 -10 3 2 6 -12 7 -31 1 -19 -2 -36 -6 -39 -5 -3 -3 -49 3 -103 6
-54 10 -109 10 -123 0 -14 4 -28 9 -32 6 -4 6 -12 -1 -20 -13 -17 -22 -78 -11
-78 4 0 8 -5 8 -11 0 -7 8 -17 17 -24 15 -11 14 -12 -12 -8 -17 2 -26 1 -20
-4 12 -10 13 -33 1 -52 -7 -10 -5 -12 5 -6 11 6 12 5 2 -6 -17 -18 -16 -44 1
-59 11 -8 12 -18 5 -36 -14 -39 -11 -46 14 -34 21 11 21 10 3 -4 -21 -17 -30
-56 -12 -53 6 1 11 -5 11 -13 0 -9 -7 -14 -17 -12 -11 2 -17 -4 -17 -15 0 -26
-8 -73 -13 -78 -3 -3 -17 4 -31 16 -15 11 -32 17 -39 13 -8 -5 -6 -10 8 -14
12 -5 1 -8 -29 -8 -54 -1 -55 -5 10 66 18 20 33 40 33 44 0 13 -73 -28 -99
-55 -19 -21 -28 -24 -47 -17 -13 5 -24 7 -24 4 0 -2 -12 2 -27 10 -24 12 -30
12 -52 -3 -24 -15 -25 -15 -18 2 4 11 1 20 -8 23 -8 4 -15 12 -15 19 0 9 -11
13 -30 13 -16 -1 -30 -5 -30 -10 0 -5 -4 -7 -9 -4 -4 3 -17 -2 -27 -10 -17
-14 -17 -15 -1 -10 15 5 16 3 6 -15 -12 -24 -3 -41 11 -19 8 13 10 12 10 -2 0
-10 7 -18 15 -18 19 0 19 -27 0 -47 -8 -8 -13 -18 -10 -23 3 -5 16 2 29 15 30
30 83 29 78 -1 -2 -16 -1 -16 7 -4 5 8 13 11 18 7 9 -9 -37 -48 -48 -41 -12 7
3 -35 16 -46 10 -8 16 -3 26 20 12 28 18 31 44 26 17 -3 47 -8 68 -10 38 -4
38 -4 21 15 -17 19 -16 19 14 4 17 -9 34 -25 37 -35 4 -11 11 -20 16 -20 14 0
11 16 -6 30 -8 7 -15 17 -15 22 0 6 6 6 14 -1 11 -9 18 -8 32 6 12 12 19 14
21 6 3 -7 10 -10 17 -7 16 6 26 -34 15 -63 -4 -11 -3 -26 1 -34 5 -8 4 -19 -2
-26 -8 -11 -7 -12 7 -6 14 5 17 3 12 -10 -3 -9 -1 -19 4 -23 6 -3 8 -16 5 -27
-3 -12 0 -28 7 -36 9 -12 9 -13 0 -7 -7 4 -13 2 -13 -3 0 -6 4 -11 9 -11 5 0
11 -7 14 -14 4 -11 1 -13 -10 -9 -13 5 -14 3 -4 -15 7 -12 14 -22 17 -22 3 0
2 5 -1 10 -6 9 8 14 28 11 5 -1 5 4 1 10 -3 6 0 16 7 21 11 8 11 9 -2 5 -12
-4 -16 2 -17 24 0 16 3 27 8 24 5 -3 12 -1 15 5 4 6 1 9 -6 8 -6 -2 -14 3 -16
10 -3 6 1 12 7 12 7 0 2 9 -11 20 -13 10 -19 19 -12 20 6 0 14 -6 16 -12 4 -8
6 -7 6 4 1 9 7 19 14 22 6 3 1 3 -13 0 -19 -4 -22 -3 -10 5 8 6 16 15 16 21 3
23 5 24 14 10 7 -12 9 -11 8 6 -1 11 -10 21 -20 21 -10 1 -17 -3 -15 -9 1 -6
-4 -13 -11 -15 -11 -4 -12 -1 -3 16 7 11 20 21 31 21 10 0 27 3 37 7 16 6 16
5 4 -11 -12 -14 -12 -19 -1 -29 10 -9 11 -9 6 1 -4 6 -3 12 3 12 5 0 8 8 6 18
-2 9 -4 21 -4 26 -1 5 -7 4 -13 -1 -16 -13 -48 -13 -48 0 0 5 7 7 15 4 8 -4
17 -2 20 3 6 10 152 7 162 -4 6 -6 -20 -10 -46 -7 -11 2 -11 0 0 -12 12 -12
18 -11 48 9 19 13 38 21 43 18 4 -3 8 -1 8 3 0 5 12 10 27 11 38 3 39 8 3 40
l-31 29 23 8 c21 7 33 10 66 14 6 0 12 6 12 11 0 24 -110 -1 -110 -25 0 -5 -5
-3 -10 5 -8 12 -10 10 -10 -8 0 -13 3 -21 8 -19 4 3 15 -4 26 -14 18 -17 18
-18 -1 -13 -11 3 -32 16 -48 30 -34 29 -45 30 -52 5 -3 -11 -13 -19 -23 -18
-10 1 -17 4 -14 8 2 4 0 10 -6 14 -5 3 -10 -1 -10 -10 0 -9 -5 -13 -10 -10 -6
4 -7 12 -3 18 4 7 -1 6 -11 -2 -15 -13 -19 -13 -27 0 -12 20 -11 53 3 67 8 8
8 12 1 12 -5 0 -10 12 -9 28 0 19 -4 26 -14 24 -12 -3 -13 -1 -2 9 6 7 12 18
12 23 0 7 -4 6 -8 -1 -5 -8 -13 -9 -22 -3 -10 7 -11 10 -2 10 6 0 12 7 12 15
0 9 7 18 15 21 8 4 12 11 9 16 -4 5 -14 -2 -24 -17 -10 -15 -20 -22 -24 -17
-3 6 0 12 6 15 10 3 10 9 1 25 -11 18 -9 19 10 15 18 -4 19 -3 7 6 -10 8 -12
13 -4 19 13 9 26 54 13 46 -5 -3 -9 -13 -10 -22 0 -10 -3 -12 -5 -5 -3 7 0 21
5 32 14 25 -4 38 -18 14 -6 -10 -11 -13 -11 -6 0 6 7 19 16 27 13 14 14 16 0
16 -8 0 -18 5 -22 12 -5 7 -2 9 9 5 13 -5 15 0 13 28 -2 21 1 36 9 39 10 4 12
-4 8 -28 -3 -19 -1 -36 3 -39 5 -3 10 17 10 44 1 34 -3 49 -11 49 -14 0 -9 36
8 58 7 9 5 11 -9 5 -16 -6 -16 -4 3 23 12 16 21 41 21 54 0 14 3 43 7 65 4 26
2 55 -8 82 -13 38 -13 41 2 33 9 -4 33 -15 54 -24 20 -8 37 -20 37 -25 0 -5
16 -21 36 -36 30 -23 46 -30 75 -34 10 -2 6 -31 -4 -31 -5 0 2 -9 16 -20 17
-14 24 -26 20 -38 -6 -15 -4 -15 15 2 22 19 31 53 12 41 -5 -3 -10 0 -10 8 0
8 -7 17 -15 21 -8 3 -15 11 -15 17 0 7 11 2 25 -11 14 -13 25 -20 25 -15 0 4
-7 13 -16 20 -9 6 -16 23 -16 38 0 14 -10 34 -21 44 -20 17 -20 17 -13 -2 5
-16 2 -15 -19 7 -17 19 -25 38 -25 64 0 31 -2 35 -15 24 -8 -7 -12 -16 -9 -21
3 -5 0 -9 -6 -9 -8 0 -10 9 -6 26 4 15 3 23 -3 20 -5 -3 -12 0 -15 6 -3 7 -3
2 0 -12 l6 -25 -21 22 c-11 12 -21 27 -21 33 0 6 -5 8 -10 5 -6 -4 -7 -11 -4
-17 4 -6 1 -9 -5 -7 -7 3 -12 9 -11 14 1 6 -9 13 -22 16 -15 4 -8 6 22 7 52 1
104 18 95 31 -3 6 -15 8 -26 6 -13 -3 -19 0 -16 8 3 9 -8 11 -40 8 -42 -3 -45
-2 -42 20 2 13 0 29 -4 35 -8 13 -4 65 7 82 3 6 1 14 -5 17 -5 4 -8 13 -5 21
3 7 1 16 -4 19 -6 3 -6 15 0 29 5 13 7 26 5 28 -2 2 -6 27 -9 55 -2 29 -7 56
-10 62 -3 5 0 14 8 20 11 9 17 4 30 -24 9 -19 19 -35 22 -35 3 0 2 5 -1 10 -4
6 9 9 34 6 30 -3 41 0 41 10 0 19 44 28 70 14 12 -6 19 -14 17 -17 -3 -2 -15
1 -27 7 -26 14 -34 8 -25 -19 6 -18 32 -27 66 -23 4 1 5 -8 2 -18 -4 -14 0
-20 11 -20 10 0 15 -3 13 -7 -3 -5 7 -9 21 -10 15 0 34 -12 45 -27 19 -27 37
-34 37 -15 0 5 -4 7 -10 4 -5 -3 -10 -2 -10 4 0 5 4 12 9 16 11 6 61 -15 61
-27 0 -4 6 -8 14 -8 25 0 42 -64 24 -87 -13 -16 -85 -53 -103 -53 -20 0 -19
-16 0 -24 9 -3 18 1 21 8 8 20 45 27 63 13 14 -10 14 -10 3 5 -12 15 -9 19 27
37 41 21 76 19 67 -5 -3 -7 0 -17 7 -21 7 -5 18 -16 25 -25 13 -16 11 -16 -17
-8 -19 5 -31 5 -33 -2 -3 -8 -11 -7 -26 1 -14 8 -28 9 -39 3 -15 -9 -14 -11 5
-23 16 -10 18 -17 11 -31 -11 -20 -5 -22 69 -20 32 1 44 -3 49 -16 9 -23 25
-33 38 -22 13 11 55 2 55 -11 0 -5 6 -9 14 -9 7 0 22 -12 31 -27 16 -23 16
-25 1 -20 -9 4 -16 4 -16 0 0 -10 51 -53 63 -53 7 0 4 5 -6 11 -10 6 -14 15
-10 22 4 7 8 15 9 20 1 4 2 9 3 12 0 3 11 1 22 -6 16 -8 18 -13 9 -19 -13 -8
-5 -70 9 -70 12 0 5 -49 -9 -65 -9 -11 -9 -15 -1 -15 6 0 11 5 11 11 0 5 5 7
12 3 7 -4 8 -3 4 4 -4 7 -3 12 2 12 5 0 12 -11 14 -25 3 -13 2 -22 -2 -20 -4
3 -11 -7 -14 -20 -4 -14 -10 -24 -14 -21 -5 3 -6 -9 -4 -26 4 -26 2 -30 -12
-25 -10 4 -16 1 -16 -8 0 -7 -6 -20 -13 -27 -7 -7 -19 -34 -26 -60 -10 -35
-19 -48 -37 -52 -16 -4 -24 -14 -24 -27 0 -11 -9 -41 -21 -66 -16 -34 -23 -43
-30 -32 -7 12 -9 11 -9 -2 0 -18 -51 -69 -69 -69 -8 0 -11 6 -7 15 4 12 2 13
-17 2 -12 -6 -26 -18 -30 -25 -6 -9 -13 -9 -27 -2 -12 6 -21 7 -25 0 -3 -5
-12 -7 -21 -3 -12 5 -13 1 -3 -20 7 -15 16 -24 20 -21 5 3 9 1 9 -5 0 -5 -6
-12 -12 -14 -10 -4 -10 -6 0 -6 16 -1 16 -21 -1 -21 -8 0 -24 -9 -37 -20 -22
-19 -35 -24 -52 -21 -7 1 -9 -6 -7 -26 0 -5 7 -7 16 -5 31 7 0 -19 -48 -40
-44 -20 -48 -24 -34 -37 17 -17 95 -23 89 -7 -5 16 44 49 62 42 9 -3 18 -15
21 -26 3 -11 10 -20 15 -20 5 0 7 -4 3 -9 -3 -6 3 -9 14 -8 16 1 18 4 8 16 -9
11 -9 13 0 8 6 -4 14 -3 18 3 3 5 1 10 -4 10 -21 0 -11 21 15 31 15 5 24 12
21 16 -9 8 43 34 54 27 5 -3 9 -2 8 3 -3 20 2 27 11 13 7 -10 12 -12 18 -4 10
15 163 96 170 90 3 -3 -3 -8 -12 -12 -9 -3 -16 -10 -16 -16 0 -5 4 -7 8 -4 4
2 8 -4 8 -15 0 -10 -4 -19 -8 -19 -4 0 -8 -5 -8 -11 0 -5 3 -8 8 -5 11 6 47
-22 38 -31 -4 -4 -10 -3 -14 2 -20 28 -77 2 -77 -35 0 -14 5 -28 10 -32 16
-12 -7 -41 -48 -60 -25 -12 -37 -26 -42 -47 -6 -27 -28 -47 -47 -43 -5 1 -9
-6 -10 -15 0 -10 -2 -24 -2 -31 -1 -7 -8 -17 -16 -22 -8 -5 -10 -10 -4 -10 16
0 35 25 26 35 -4 5 -1 5 6 1 7 -5 11 -15 7 -23 -5 -14 -3 -14 11 -2 15 12 17
12 12 -1 -2 -8 -14 -16 -26 -18 -11 -2 -26 -10 -32 -17 -10 -12 -15 -12 -35 1
-20 13 -24 13 -35 -1 -7 -8 -16 -12 -21 -9 -5 3 -9 -2 -9 -10 0 -10 -6 -13
-15 -9 -14 5 -14 8 0 29 8 13 17 50 19 82 2 33 8 68 14 79 14 26 3 39 -35 40
-31 0 -31 0 -16 -23 8 -13 12 -28 8 -34 -4 -6 -1 -9 6 -8 6 2 14 -3 16 -9 5
-14 -30 -16 -62 -4 -19 8 -19 8 0 19 17 9 17 11 4 12 -21 0 -33 -28 -19 -45 8
-9 8 -15 0 -20 -6 -4 -10 -12 -9 -18 1 -7 1 -21 0 -31 -1 -16 -4 -17 -13 -8
-20 20 -30 14 -15 -9 16 -23 11 -62 -7 -52 -7 4 -7 2 1 -7 7 -8 9 -20 3 -35
-5 -13 -6 -26 -3 -29 4 -3 -2 -6 -13 -6 -11 0 -24 -10 -29 -22 -6 -13 -17 -22
-24 -20 -7 1 -10 -2 -6 -8 4 -6 1 -17 -5 -25 -7 -8 -10 -16 -6 -16 3 -1 10 -2
15 -3 28 -4 15 -13 -16 -11 -21 1 -38 6 -38 12 0 6 -4 15 -9 20 -5 5 -6 3 -2
-4 4 -7 2 -13 -3 -13 -6 0 -11 4 -11 10 0 11 -32 1 -42 -14 -14 -20 -8 -30 5
-12 11 15 17 17 35 7 12 -6 22 -13 22 -15 0 -23 -87 -122 -98 -112 -3 3 1 12
7 20 8 10 9 16 1 21 -10 6 -11 5 -14 -15 0 -5 -11 -17 -23 -25 -15 -10 -20
-21 -16 -33 6 -15 4 -14 -16 2 -12 11 -19 26 -17 33 3 7 1 13 -5 13 -6 0 -7 4
-4 10 3 6 -1 7 -9 4 -15 -6 -20 6 -19 43 1 7 -4 10 -10 6 -6 -4 -8 0 -4 10 3
9 0 18 -9 21 -9 3 -12 1 -9 -4 3 -6 2 -10 -2 -10 -11 0 -36 40 -40 62 -2 11 2
15 11 12 23 -9 26 12 5 34 -21 23 -39 29 -39 12 0 -5 5 -10 11 -10 7 0 8 -7 4
-17 -14 -35 -13 -52 1 -57 10 -4 12 -11 6 -23 -12 -26 -8 -68 8 -89 8 -11 10
-16 6 -12 -5 4 -16 2 -25 -5 -14 -11 -15 -10 -1 8 14 19 14 19 -3 6 -10 -8
-16 -20 -13 -27 5 -14 -51 -38 -59 -25 -2 5 11 25 30 45 19 21 35 43 35 49 0
7 -5 4 -11 -5 -5 -10 -17 -18 -24 -18 -8 0 -14 -5 -13 -11 2 -6 -7 -17 -19
-26 -22 -15 -22 -14 -13 15 7 25 5 30 -6 25 -8 -3 -14 -15 -14 -27 0 -18 -18
-59 -21 -46 0 3 -2 13 -4 23 -2 9 1 17 6 17 5 0 9 5 9 11 0 5 -4 8 -10 4 -5
-3 -26 1 -46 10 -27 11 -35 19 -30 31 4 9 1 24 -6 33 -12 15 -11 15 7 0 11 -9
25 -14 32 -12 14 5 37 -33 28 -47 -3 -6 1 -7 9 -4 22 9 20 21 -9 50 -14 14
-25 29 -25 33 0 5 -7 12 -16 15 -12 5 -15 2 -10 -10 5 -14 4 -15 -9 -4 -10 8
-12 17 -5 29 10 19 -3 50 -14 33 -8 -13 -33 -6 -59 16 -9 8 -20 12 -25 7 -4
-4 -1 -10 6 -12 6 -3 12 -11 12 -19 0 -8 5 -14 10 -14 6 0 10 -4 10 -9 0 -5
-6 -8 -14 -7 -19 3 -46 32 -38 41 4 5 1 5 -6 1 -9 -6 -7 -14 8 -37 12 -16 17
-29 12 -29 -6 0 -13 -7 -16 -16 -3 -8 -2 -12 4 -9 12 7 70 -22 70 -35 0 -6 6
-10 14 -10 25 0 26 -16 3 -40 -15 -17 -16 -22 -5 -18 8 4 22 1 29 -5 9 -9 9
-6 -1 8 -8 11 2 5 22 -14 36 -33 42 -66 11 -54 -12 5 -14 3 -8 -7 5 -8 3 -11
-6 -8 -7 2 -31 -15 -53 -39 -22 -24 -46 -43 -53 -43 -7 0 -10 -6 -6 -17 4 -11
3 -14 -5 -9 -7 4 -15 0 -18 -9 -4 -9 -11 -12 -18 -7 -6 4 -29 8 -51 8 -31 -1
-44 4 -56 22 -11 15 -19 20 -24 13 -3 -6 -11 -9 -16 -5 -5 3 -7 9 -5 13 3 4
-1 8 -9 8 -8 0 -12 -4 -9 -9 3 -4 -4 -8 -15 -8 -12 0 -23 0 -26 0 -3 0 -5 3
-6 8 -1 4 -5 15 -11 25 -11 21 -23 15 -23 -11 0 -12 -7 -16 -25 -14 -14 1 -26
7 -28 12 -5 14 -31 12 -46 -3 -7 -7 -11 -18 -8 -25 4 -14 -24 -17 -33 -3 -3 5
-1 12 5 16 16 10 12 34 -10 52 -11 10 -20 23 -20 31 0 9 -5 10 -19 2 -16 -8
-21 -6 -26 10 -5 15 -12 19 -30 14 -18 -4 -27 1 -41 25 -10 16 -21 28 -26 25
-4 -3 -8 4 -8 15 0 24 -4 25 -32 10 -15 -8 -19 -8 -14 0 4 6 2 11 -4 11 -6 0
-14 -9 -18 -21 -7 -19 -9 -19 -21 -5 -8 9 -18 16 -24 16 -6 0 -2 -7 9 -16 18
-15 18 -15 -4 -11 -20 5 -22 2 -16 -16 6 -18 4 -20 -7 -11 -8 6 -22 11 -32 11
-13 0 -16 -6 -11 -21 4 -12 7 -21 8 -21 0 0 11 -5 22 -12 18 -10 21 -9 20 4 0
9 5 18 13 21 8 3 11 0 7 -7 -4 -6 -2 -11 3 -11 6 0 11 5 11 10 0 6 7 10 15 10
8 0 15 -5 15 -11 0 -5 4 -7 10 -4 5 3 15 -3 22 -15 7 -11 18 -20 24 -20 7 0
15 -10 18 -22 7 -22 7 -22 16 -3 7 15 9 16 9 4 1 -20 21 -37 47 -42 37 -7 84
-42 84 -63 0 -11 7 -29 16 -40 15 -18 15 -17 10 19 -4 34 -3 36 15 27 10 -6
19 -8 19 -4 0 3 11 -1 25 -10 13 -9 31 -16 40 -16 8 0 15 -5 15 -11 0 -5 6 -7
13 -4 6 4 4 0 -6 -8 -16 -13 -16 -15 -2 -21 11 -4 14 -2 9 6 -5 8 -2 9 11 4
11 -4 25 0 36 10 14 13 22 14 32 6 11 -9 12 -2 6 41 -3 29 -6 53 -5 54 2 2 13
-7 25 -18 16 -15 22 -30 19 -50 -3 -15 -1 -26 4 -23 8 5 12 -10 9 -34 -1 -6 8
-12 19 -12 14 0 19 -4 14 -12 -4 -7 7 0 24 16 18 17 35 25 43 21 9 -6 10 -1 5
19 -4 15 -2 26 4 26 5 0 10 -8 10 -18 0 -18 29 -52 43 -52 15 0 6 31 -15 52
-24 24 -14 53 19 52 15 0 18 5 15 21 -2 14 2 24 12 28 11 4 13 1 9 -11 -6 -15
-5 -15 10 -3 11 8 15 21 12 32 -4 13 -2 17 7 14 17 -7 17 -56 0 -74 -10 -11
-16 -11 -21 -2 -5 8 -11 3 -19 -14 -8 -16 -8 -25 -1 -25 6 0 7 -4 4 -10 -3 -5
0 -7 8 -5 7 3 35 -11 61 -31 46 -35 49 -36 64 -18 14 15 14 16 1 6 -13 -10
-20 -7 -37 11 -12 13 -19 27 -15 31 4 4 0 4 -9 1 -9 -4 -19 -2 -22 3 -12 19
28 24 43 5 13 -17 13 -17 8 0 -5 14 0 17 26 17 40 0 66 14 43 23 -9 4 -23 4
-31 1 -8 -4 -15 -1 -15 5 0 6 -5 10 -12 9 -17 -4 -34 88 -19 106 16 20 55 11
87 -19 21 -19 29 -22 36 -13 6 10 8 8 8 -4 0 -10 -6 -18 -12 -18 -9 0 -10 -3
-2 -8 11 -7 12 -12 15 -67 1 -14 5 -28 10 -31 5 -3 6 2 3 10 -4 9 1 18 10 22
9 3 14 9 12 13 -2 3 7 7 21 7 24 2 24 2 4 -13 -19 -13 -31 -41 -13 -29 4 2 8
-3 9 -12 1 -9 4 -29 7 -44 3 -15 2 -30 -4 -33 -13 -8 -13 -25 -1 -25 6 0 21
10 35 23 21 20 22 25 10 41 -7 11 -11 23 -7 29 4 6 11 3 19 -7 13 -19 34 -14
34 7 0 8 -3 8 -9 -2 -7 -10 -12 -8 -24 10 -19 26 -10 51 9 25 8 -11 14 -13 19
-7 10 16 25 13 25 -5 0 -10 6 -14 14 -11 9 4 17 -2 21 -13 3 -10 12 -24 21
-31 13 -10 13 -9 5 13 -9 23 -8 25 11 20 14 -3 19 -1 14 6 -4 7 -5 12 -3 12 3
0 15 -16 26 -36 24 -41 37 -41 22 0 -9 23 -8 26 11 26 11 0 27 -8 34 -17 8
-11 13 -13 14 -5 0 15 30 16 30 1 0 -5 -6 -7 -12 -3 -7 4 -9 3 -5 -1 4 -5 15
-10 23 -11 39 -6 47 -13 33 -32 -13 -15 -12 -16 3 -4 14 11 17 10 22 -6 4 -11
19 -22 34 -25 25 -5 25 -4 8 9 -18 13 -18 14 -1 41 10 15 12 22 4 15 -19 -18
-26 -15 -37 18 -13 36 2 51 26 25 10 -10 12 -15 6 -12 -6 3 -11 0 -11 -7 0
-10 8 -12 31 -5 21 6 34 5 45 -5 18 -15 88 -19 97 -5 3 5 15 10 27 10 17 1 18
2 5 6 -21 5 -24 22 -5 24 48 5 68 3 83 -8 10 -7 15 -14 11 -14 -4 -1 -11 -2
-15 -3 -5 0 -16 -9 -26 -19 -10 -9 -22 -17 -27 -17 -5 0 -9 -7 -9 -15 0 -12 5
-13 18 -7 9 5 29 9 44 8 14 -1 24 2 22 6 -3 4 0 8 5 8 6 0 11 5 11 11 0 6 -8
9 -17 5 -12 -4 -10 0 4 10 l23 16 -23 19 c-29 25 -10 24 28 -1 40 -26 69 -26
35 0 -33 26 -14 26 25 0 32 -21 60 -27 50 -10 -3 5 -1 19 5 30 8 16 8 20 -4
20 -19 0 -30 -17 -14 -22 8 -3 9 -6 1 -11 -6 -4 -23 4 -39 18 -15 13 -30 24
-33 23 -3 0 -8 0 -11 2 -22 8 -50 8 -45 0 6 -10 -9 -13 -50 -13 -33 1 -36 3
-29 15 4 6 3 8 -3 5 -5 -4 -20 3 -32 14 -12 12 -29 18 -37 15 -22 -8 -17 -26
9 -26 19 0 60 -18 47 -21 -30 -7 -62 -3 -68 7 -10 17 -36 22 -38 7 -1 -7 -2
-16 -3 -20 0 -3 -10 2 -22 13 -11 10 -19 14 -17 9 3 -11 -11 -15 -31 -7 -7 3
-16 0 -20 -5 -3 -5 -16 -12 -29 -16 -18 -4 -22 -2 -18 9 3 9 1 12 -5 9 -5 -4
-17 -1 -26 7 -12 9 -15 9 -9 1 11 -19 -13 -15 -64 10 -34 16 -44 27 -42 41 2
10 0 16 -6 12 -5 -3 -15 0 -21 8 -14 17 11 42 31 30 7 -4 10 -4 6 1 -4 4 4 21
17 37 14 16 23 34 19 39 -3 5 -1 9 3 9 5 0 18 7 29 16 10 8 13 12 5 8 -9 -5
-12 -3 -7 4 4 7 13 12 19 12 7 0 24 13 39 30 24 28 25 30 6 30 -11 0 -18 5
-16 11 2 6 6 9 8 8 10 -6 49 35 43 44 -3 6 -1 7 5 3 10 -6 42 29 42 46 0 11
-54 -2 -58 -14 -2 -4 -8 -8 -14 -8 -6 0 -3 9 7 20 10 11 21 17 26 15 4 -3 11
0 14 6 4 5 13 8 21 5 7 -3 16 0 20 6 4 6 3 8 -3 5 -7 -4 -10 3 -9 17 1 30 13
29 43 -4 14 -15 22 -20 23 -11 0 11 3 11 15 1 13 -11 14 -10 10 2 -7 17 20 44
29 29 8 -13 43 -2 51 16 4 13 3 14 -10 3 -9 -7 -18 -10 -21 -8 -7 8 46 48 62
48 8 0 14 5 14 11 0 5 4 8 9 5 8 -5 38 21 41 36 9 42 14 49 29 43 28 -11 33
-10 38 4 4 9 0 11 -14 7 -14 -5 -19 -1 -19 14 0 13 5 19 13 16 7 -3 13 0 13 8
0 7 11 23 25 36 13 12 22 26 20 30 -3 4 4 19 15 33 11 14 20 30 20 36 0 12 13
15 23 4 4 -3 -1 -12 -11 -19 -14 -11 -14 -13 -2 -14 8 0 26 12 39 26 13 14 20
24 15 23 -5 -1 -19 -1 -30 0 -22 1 -22 1 4 56 14 30 28 52 31 48 4 -5 19 -19
36 -33 22 -19 26 -20 15 -5 -8 11 -21 25 -29 31 -8 7 -11 16 -6 24 6 9 4 11
-6 5 -11 -7 -12 -6 -3 6 5 8 10 21 9 29 0 8 4 20 10 26 15 15 76 44 69 32 -4
-6 0 -6 13 1 11 6 22 9 24 7 2 -2 13 5 23 15 13 12 15 19 7 19 -11 0 -11 3 -1
15 7 8 18 15 24 15 6 0 4 -4 -4 -10 -27 -17 -3 -21 31 -5 19 8 25 13 14 10
-16 -5 -14 0 9 20 16 14 34 25 40 26 6 1 0 4 -14 8 -30 9 -52 3 -43 -12 3 -6
1 -7 -5 -3 -6 4 -23 -1 -37 -10 -14 -9 -25 -12 -25 -8 0 5 -4 4 -8 -1 -4 -6
-19 -16 -34 -24 -15 -8 -25 -19 -21 -24 3 -6 1 -7 -5 -3 -5 3 -13 0 -15 -6 -4
-9 -6 -9 -6 1 -1 10 -9 7 -27 -10 -21 -19 -24 -20 -18 -5 5 13 4 17 -4 12 -8
-5 -10 6 -8 36 3 36 8 45 32 56 l29 13 -32 -5 c-25 -4 -33 -2 -33 9 0 19 -20
19 -48 -1 -20 -14 -27 -12 -23 9 1 5 -3 6 -9 2 -8 -5 -8 -11 1 -21 6 -7 15
-11 20 -8 15 9 10 -19 -7 -38 -12 -12 -14 -22 -7 -30 6 -7 13 -24 16 -37 8
-31 -20 -56 -43 -38 -13 10 -13 10 -3 -4 11 -13 9 -20 -7 -39 -11 -13 -20 -19
-20 -15 0 5 -6 2 -12 -6 -26 -31 -238 -115 -238 -95 0 3 19 17 41 32 23 14 44
34 46 45 6 22 19 25 27 7 3 -9 5 -8 4 2 -3 24 12 58 27 64 17 6 21 46 5 46 -5
0 -10 -4 -10 -10 0 -5 -5 -10 -12 -10 -8 0 -5 7 5 18 17 16 19 16 33 -2 8 -11
14 -14 14 -8 0 18 40 14 64 -5 12 -10 15 -11 9 -3 -17 19 -16 33 1 27 10 -4
13 -1 9 9 -6 17 -20 19 -25 3 -2 -7 -9 -5 -17 5 -12 14 -12 16 4 9 14 -5 17
-3 12 10 -6 15 15 42 25 31 3 -2 8 2 12 11 4 10 2 14 -5 9 -15 -9 -10 3 26 59
17 26 37 46 45 46 30 -2 38 1 43 21 3 12 1 35 -4 53 -7 23 -6 35 3 42 16 13
23 65 9 65 -7 0 -7 8 -2 22 6 16 3 32 -10 55 -12 21 -14 30 -5 27 9 -4 11 4 8
28 -3 26 -2 31 8 21 17 -16 40 -5 33 15 -4 13 -3 14 5 3 5 -7 15 -10 21 -7 6
4 11 0 11 -9 0 -11 -5 -15 -14 -12 -10 4 -14 -5 -14 -34 -1 -21 2 -40 6 -40
32 -6 58 -5 63 3 3 5 12 2 19 -7 11 -13 10 -15 -4 -9 -9 3 -16 1 -16 -5 0 -6
12 -11 26 -11 16 0 23 -4 18 -11 -3 -6 -3 -14 2 -18 20 -14 31 -47 23 -68 -6
-16 -3 -22 13 -26 15 -4 19 -2 15 12 -2 10 1 18 8 18 7 0 10 -10 7 -24 -3 -16
0 -23 12 -23 9 0 16 -6 16 -12 1 -18 37 -64 45 -56 4 3 2 16 -4 27 -10 17 -9
20 4 15 8 -4 15 -12 15 -19 0 -7 7 -16 16 -19 11 -4 14 -13 11 -28 -4 -12 -2
-17 3 -12 5 5 11 22 14 38 7 37 13 42 20 18 8 -23 -6 -63 -36 -104 -17 -25
-18 -32 -7 -39 9 -5 16 -3 21 9 7 18 10 13 13 -28 4 -42 6 -46 14 -27 4 11 7
-4 8 -40 1 -40 -3 -63 -14 -75 -9 -10 -13 -26 -10 -38 3 -12 -1 -23 -10 -29
-10 -5 -14 -15 -10 -25 8 -20 27 -21 27 -2 0 7 7 19 15 26 14 11 14 10 5 -16
-6 -16 -13 -36 -17 -44 -15 -36 7 -75 36 -65 11 5 12 3 1 -10 -10 -13 -15 -13
-21 -3 -6 9 -10 8 -15 -5 -3 -9 -10 -14 -15 -11 -5 3 -6 -2 -3 -10 3 -9 11
-13 18 -10 6 3 1 -3 -11 -13 -11 -10 -24 -33 -28 -50 -4 -18 -11 -33 -17 -33
-6 0 -4 -8 5 -18 23 -25 21 -31 -8 -42 -24 -9 -37 -50 -15 -50 6 0 10 5 10 10
0 6 5 10 11 10 16 0 3 -46 -23 -81 -12 -15 -25 -26 -31 -22 -13 8 -28 -19 -17
-32 12 -14 -23 -54 -46 -52 -10 1 -20 -6 -22 -15 -2 -13 1 -16 12 -12 11 4 16
1 16 -10 0 -9 6 -16 13 -17 6 0 1 -5 -12 -10 -18 -7 -26 -6 -36 7 -11 15 -13
14 -19 -11 -6 -23 -9 -26 -17 -14 -8 10 -9 7 -5 -13 5 -22 0 -29 -32 -48 -20
-12 -39 -21 -41 -20 -2 1 -8 -5 -13 -14 -5 -8 -14 -13 -21 -11 -17 7 -41 -11
-33 -24 4 -6 12 -9 17 -6 5 4 9 2 9 -4 0 -6 -12 -8 -30 -5 -22 5 -31 2 -36
-10 -3 -9 -10 -16 -16 -16 -5 0 -7 4 -3 9 8 14 -26 43 -45 38 -10 -2 -23 4
-31 14 -7 10 -16 16 -21 13 -4 -3 -8 0 -8 5 0 6 5 11 12 11 6 0 8 3 5 6 -4 4
-13 1 -21 -5 -13 -11 -9 -18 29 -47 25 -18 50 -31 58 -29 8 4 13 -3 14 -16 2
-17 -1 -19 -10 -10 -16 16 -44 14 -51 -5 -9 -24 -8 -26 16 -18 20 6 21 5 9 -9
-7 -9 -17 -15 -21 -12 -5 3 -11 1 -15 -5 -4 -6 -10 -8 -15 -5 -5 3 -12 0 -16
-6 -4 -7 -3 -9 4 -5 17 10 20 -18 3 -32 -13 -10 -11 -10 11 -1 15 7 24 17 21
23 -4 5 10 0 30 -12 36 -21 38 -21 49 -3 6 11 18 17 25 14 7 -3 13 2 13 10 0
9 8 15 19 14 11 -1 18 -8 17 -20 -1 -11 17 -34 42 -55 l43 -36 -7 30 c-8 34
-33 66 -45 58 -5 -3 -9 0 -9 5 0 6 5 11 10 11 6 0 10 12 11 28 0 15 3 21 6 14
4 -10 9 -8 20 7 8 12 20 18 26 15 7 -4 9 -3 4 1 -4 5 1 17 10 27 16 18 16 18
0 12 -10 -3 -17 -1 -17 6 0 6 -5 8 -12 4 -6 -4 -8 -3 -5 4 4 5 16 8 26 5 24
-6 74 26 67 43 -3 7 2 15 11 18 11 4 14 2 9 -9 -4 -12 3 -15 34 -15 22 0 40 4
40 9 0 5 -6 9 -12 8 -42 -1 -49 3 -42 26 7 24 24 38 35 31 4 -2 10 0 14 6 3 5
1 10 -5 10 -7 0 -8 6 -1 18 13 23 44 61 35 42 -4 -8 2 -6 13 5 11 12 19 32 18
48 -1 16 5 32 14 37 11 6 12 9 3 10 -7 0 -10 5 -7 10 4 6 10 8 15 5 5 -3 11 4
15 14 3 11 15 23 25 26 16 5 17 9 8 25 -9 14 -8 23 5 44 10 14 24 26 31 26 7
0 20 8 27 17 15 18 15 18 -35 -3 -12 -5 -13 0 -4 30 8 25 14 32 20 24 4 -7 8
-11 9 -8 0 3 2 13 4 24 2 10 0 29 -5 42 -5 13 -6 24 -2 24 4 0 16 13 27 28
l20 27 -26 -17 c-17 -11 -31 -13 -40 -7 -12 7 -12 9 1 9 8 0 31 14 50 31 30
26 32 29 11 24 -17 -5 -22 -4 -16 5 5 9 4 11 -3 6 -8 -4 -12 0 -12 10 0 14 -3
15 -12 6 -9 -9 -8 -15 7 -25 12 -10 14 -16 7 -21 -7 -4 -12 -2 -12 5 0 8 -3 9
-13 0 -11 -9 -14 -6 -13 15 1 15 10 32 21 40 24 18 13 29 -15 14 -12 -6 -24
-9 -27 -6 -3 3 2 8 11 12 9 3 13 10 10 15 -3 5 -8 7 -12 5 -9 -5 -7 42 3 74 4
14 16 36 26 49 10 13 16 28 12 33 -3 6 -13 -1 -22 -16 -8 -14 -19 -26 -23 -26
-14 0 -8 41 8 57 9 9 13 25 10 37 -3 11 2 28 10 37 12 14 13 18 2 25 -7 4 -10
4 -6 0 6 -8 -39 -66 -51 -66 -4 0 -12 9 -19 21 -15 24 -7 59 14 59 11 0 13 6
9 20 -5 17 -2 20 24 20 18 0 38 -9 50 -21 15 -16 21 -18 27 -7 4 7 4 10 0 6
-10 -8 -42 24 -51 51 -7 23 -85 108 -85 94 0 -4 -5 -1 -11 7 -8 12 -9 10 -4
-7 3 -12 1 -25 -6 -29 -8 -4 -9 -3 -5 4 4 8 0 12 -10 12 -14 0 -15 3 -6 12 7
7 12 19 12 27 -1 13 -3 13 -14 -2 -12 -15 -14 -16 -20 -2 -3 8 -1 15 4 15 6 0
10 4 10 10 0 5 -6 7 -14 4 -15 -6 -56 28 -56 47 0 5 -3 8 -7 6 -5 -2 -24 12
-43 31 -19 19 -28 31 -20 27 10 -4 9 -1 -2 8 -10 8 -18 26 -18 41 0 15 -4 25
-10 21 -5 -3 -7 -12 -3 -20 3 -9 -1 -15 -11 -15 -15 0 -18 4 -20 33 -1 13 -21
37 -31 37 -3 0 -3 -4 0 -10 3 -5 2 -10 -3 -10 -12 0 -23 26 -14 34 10 11 11
37 1 30 -5 -3 -7 -8 -5 -12 2 -4 -3 -16 -11 -27 -11 -14 -14 -15 -10 -3 3 9
-2 23 -13 33 -16 14 -22 32 -36 104 -4 19 -22 36 -30 28 -4 -4 -1 -13 6 -22
11 -13 9 -15 -11 -15 -17 0 -20 -3 -11 -12 13 -13 -3 -52 -19 -42 -6 4 -5 12
3 22 11 13 11 15 -4 9 -9 -3 -22 0 -28 8 -9 11 -7 12 11 8 17 -5 20 -3 14 8
-18 29 -49 59 -61 59 -7 0 -21 10 -31 23 -10 13 -33 30 -51 38 -20 9 -30 19
-27 28 3 9 0 11 -10 7 -8 -3 -15 -2 -15 2 0 11 17 34 21 30 8 -5 62 42 56 48
-4 4 -1 16 5 28 8 15 2 12 -18 -9 -17 -16 -28 -33 -26 -37 2 -4 -3 -5 -11 -2
-8 3 -18 0 -22 -6 -5 -8 -24 6 -57 40 -27 28 -62 56 -78 62 -17 5 -27 14 -24
19 5 9 -8 13 -38 10 -10 -1 -18 4 -18 13 0 19 -9 20 -30 5 -13 -9 -13 -10 0
-6 8 2 22 -6 31 -17 15 -19 15 -21 1 -32 -13 -10 -22 -8 -42 6 -15 10 -39 22
-56 26 -16 4 -44 16 -62 26 -18 10 -37 16 -41 14 -4 -3 -19 1 -34 9 -15 8 -27
11 -27 7 0 -4 -12 7 -26 23 -24 28 -26 28 -19 6 6 -18 4 -22 -6 -15 -20 12
-98 17 -79 5 8 -6 11 -13 7 -17 -9 -9 -48 26 -41 37 3 5 10 7 15 4 5 -4 4 6
-1 21 -8 19 -7 31 2 42 11 13 11 14 0 8 -11 -7 -12 -4 -3 13 10 17 9 21 -4 21
-13 0 -15 10 -11 60 3 33 1 60 -3 60 -11 0 -51 35 -51 45 0 4 10 5 23 2 19 -5
17 -2 -10 21 -24 21 -28 28 -15 29 85 5 105 3 114 -11 5 -7 8 -5 8 6 0 9 -7
24 -16 32 -19 20 -6 20 20 1 10 -7 15 -19 11 -25 -5 -9 -2 -9 11 -2 11 5 28 6
39 2 11 -4 28 -4 37 1 19 10 33 -4 22 -23 -4 -7 -4 -10 1 -6 4 4 14 3 22 -4 8
-6 24 -12 36 -13 32 -2 67 -15 67 -25 0 -14 109 -60 127 -53 13 5 15 2 10 -11
-4 -10 -3 -15 3 -11 5 3 31 -10 56 -29 26 -20 53 -36 60 -36 8 0 14 -5 14 -11
0 -5 -6 -7 -12 -3 -8 4 -10 3 -5 -2 5 -5 12 -9 15 -9 9 0 51 -42 47 -47 -2 -2
19 -30 46 -62 33 -39 49 -66 46 -78 -3 -10 -1 -16 3 -13 5 3 15 -5 22 -17 13
-25 15 -30 17 -54 1 -13 4 -14 15 -5 15 13 17 8 -29 102 -9 18 -14 34 -11 36
6 7 46 -54 46 -71 0 -9 5 -16 10 -16 6 0 10 -6 10 -14 0 -8 6 -18 13 -22 6 -4
9 -4 5 1 -4 4 -3 17 3 28 7 13 7 17 1 13 -6 -3 -14 -1 -18 5 -4 7 -3 9 4 5 5
-3 12 0 15 6 3 7 12 -4 21 -24 17 -40 25 -45 43 -27 14 14 6 39 -13 39 -22 0
-102 93 -97 112 2 4 -4 8 -13 8 -11 0 -14 -5 -9 -17 5 -15 4 -16 -7 -5 -10 10
-10 16 0 33 8 12 9 18 4 15 -5 -3 -17 3 -26 13 -16 17 -16 20 -1 35 9 9 21 16
26 16 6 0 7 5 4 10 -9 15 -27 12 -20 -2 4 -7 -1 -4 -9 6 -9 11 -19 17 -22 13
-4 -4 -1 -13 5 -21 9 -11 9 -16 0 -22 -7 -4 -9 -3 -6 3 4 6 -7 25 -25 42 -32
31 -56 42 -42 19 4 -7 -10 3 -32 22 -22 19 -35 37 -30 39 5 2 -6 9 -25 15 -20
7 -39 22 -46 37 -14 28 -63 67 -63 49 0 -5 5 -10 10 -10 6 0 10 -4 10 -8 0
-15 -160 72 -165 90 -6 18 -42 21 -63 5 -10 -8 -15 -4 -19 11 -3 12 -10 22
-15 22 -5 0 -6 5 -3 10 3 6 2 10 -4 10 -5 0 -12 -6 -14 -12 -4 -10 -8 -9 -17
2 -10 13 -11 13 -6 -2 3 -10 1 -18 -4 -18 -6 0 -10 4 -10 10 0 5 -12 13 -27
16 -16 4 -33 14 -39 22 -9 13 -11 12 -11 -2 0 -9 3 -16 7 -16 12 0 7 -29 -6
-34 -19 -7 -54 22 -48 42 3 9 -2 6 -11 -8 -9 -14 -14 -17 -11 -7 3 9 2 17 -3
17 -4 0 -8 7 -8 15 0 9 6 14 14 11 14 -6 16 3 13 42 -1 12 4 22 12 22 10 0 10
2 -1 9 -14 9 -7 51 9 51 5 0 6 10 4 23 -3 12 -6 29 -6 37 0 30 -22 61 -41 58
-11 -2 -22 3 -25 11 -3 9 0 11 9 6 11 -6 12 -5 2 6 -7 7 -13 23 -13 36 0 13
-3 23 -8 23 -4 0 -8 19 -9 42 -1 25 1 37 6 29 6 -9 11 -10 15 -2 4 6 3 11 -3
11 -6 0 -15 9 -21 21 -11 19 -10 20 9 9 21 -11 22 -5 12 63 -2 13 -28 7 -42
-10z m274 -557 c4 -10 1 -13 -8 -9 -8 3 -12 9 -9 14 7 12 11 11 17 -5z m47
-56 c0 -5 -7 -7 -15 -4 -8 4 -15 8 -15 10 0 2 7 4 15 4 8 0 15 -4 15 -10z
m298 -185 c-3 -3 -9 2 -12 12 -6 14 -5 15 5 6 7 -7 10 -15 7 -18z m177 -146
c-3 -4 -1 -10 5 -14 5 -3 10 -12 10 -18 0 -7 -8 -1 -18 14 -9 14 -27 35 -40
48 -22 21 -23 23 -6 35 15 12 20 9 35 -22 10 -19 16 -38 14 -43z m-205 -172
c0 -4 -11 0 -25 9 -14 9 -25 20 -25 26 0 11 49 -23 50 -35z m-70 23 c0 -5 -2
-10 -4 -10 -3 0 -8 5 -11 10 -3 6 -1 10 4 10 6 0 11 -4 11 -10z m164 -232 c-3
-5 2 -16 12 -23 11 -8 15 -15 10 -15 -14 0 -46 32 -46 46 0 8 6 11 15 8 8 -4
12 -10 9 -16z m73 8 c-3 -8 1 -17 9 -20 8 -3 14 -13 14 -23 -1 -15 -5 -13 -25
10 -13 15 -29 27 -35 27 -6 0 -8 5 -5 10 10 16 48 12 42 -4z m-40 -96 c-4 -29
-17 -55 -17 -32 0 7 -9 21 -21 33 -16 16 -18 23 -9 34 20 24 50 1 47 -35z
m263 -20 c0 -5 -2 -10 -4 -10 -3 0 -8 5 -11 10 -3 6 -1 10 4 10 6 0 11 -4 11
-10z m-39 -167 c-11 -25 -12 -25 -26 -7 -20 26 -19 58 0 50 8 -3 15 0 15 7 0
7 5 4 11 -7 8 -13 8 -25 0 -43z m135 -19 c1 -9 0 -13 -4 -10 -3 4 -7 14 -8 22
-1 9 0 13 4 10 3 -4 7 -14 8 -22z m149 -91 c8 -21 7 -23 -2 -23 -5 0 -8 6 -8
13 -1 6 -7 11 -14 9 -7 -1 -10 2 -6 8 9 15 22 12 30 -7z m38 -95 c4 -12 4 -24
2 -27 -3 -2 -5 1 -5 8 0 7 -4 10 -9 6 -12 -7 -24 12 -16 25 10 17 22 11 28
-12z m-319 -42 c2 -14 -4 -31 -12 -38 -11 -9 -14 -9 -9 -1 4 6 3 14 -3 18 -6
3 -13 -1 -16 -9 -3 -9 -10 -13 -15 -10 -13 8 -1 24 27 34 17 7 22 14 17 27 -3
10 -3 15 1 11 4 -3 9 -18 10 -32z m379 0 c-3 -4 -9 -2 -14 5 -13 22 -11 31 5
17 8 -7 12 -17 9 -22z m-350 -21 c-7 -21 -13 -19 -13 6 0 11 4 18 10 14 5 -3
7 -12 3 -20z m-180 -140 c-3 -9 -8 -14 -10 -11 -3 3 -2 9 2 15 9 16 15 13 8
-4z m627 -15 c0 -5 -5 -10 -11 -10 -5 0 -7 5 -4 10 3 6 8 10 11 10 2 0 4 -4 4
-10z m-445 -30 c3 -5 1 -10 -4 -10 -6 0 -11 5 -11 10 0 6 2 10 4 10 3 0 8 -4
11 -10z m140 -30 c-3 -5 -12 -10 -18 -10 -7 0 -6 4 3 10 19 12 23 12 15 0z
m-155 -30 c0 -5 -4 -10 -9 -10 -6 0 -13 5 -16 10 -3 6 1 10 9 10 9 0 16 -4 16
-10z m-339 -61 c-5 -13 -10 -20 -10 -15 -1 6 -8 1 -16 -10 -13 -17 -14 -17
-15 -1 0 9 -5 16 -11 15 -6 -2 -14 4 -16 12 -4 12 -3 12 5 1 7 -10 11 -10 17
-1 7 11 47 30 53 25 1 -1 -2 -13 -7 -26z m39 -64 c-7 -9 -15 -13 -19 -10 -3 3
1 10 9 15 21 14 24 12 10 -5z m-140 -77 c0 -13 -23 -5 -28 10 -2 7 2 10 12 6
9 -3 16 -11 16 -16z m-43 -10 c-3 -8 -6 -5 -6 6 -1 11 2 17 5 13 3 -3 4 -12 1
-19z m-435 -40 c-8 -8 -9 -4 -5 13 4 13 8 18 11 10 2 -7 -1 -18 -6 -23z m-5
-94 c-9 -29 -12 -33 -18 -18 -4 12 0 26 9 37 21 24 22 22 9 -19z m1303 -64 c0
-5 -4 -10 -10 -10 -5 0 -10 5 -10 10 0 6 5 10 10 10 6 0 10 -4 10 -10z m55
-10 c-10 -11 -21 -17 -24 -14 -3 3 3 12 13 20 28 20 32 17 11 -6z m-1064 -353
c-10 -9 -11 -8 -5 6 3 10 9 15 12 12 3 -3 0 -11 -7 -18z m849 -1 c0 -7 -9 -16
-20 -19 -24 -6 -25 -3 -4 17 19 20 24 20 24 2z m-1063 -84 c0 -9 -5 -20 -11
-24 -7 -5 -7 -11 3 -20 10 -10 12 -10 7 0 -9 15 6 16 22 0 16 -16 15 -28 -3
-28 -7 0 -18 -7 -22 -15 -6 -10 -13 -11 -23 -5 -13 9 -13 11 0 21 11 7 12 12
3 15 -9 4 -9 11 -1 29 8 18 8 28 -1 39 -10 12 -9 14 7 9 10 -2 19 -12 19 -21z
m183 14 c0 -3 -4 -8 -10 -11 -5 -3 -10 -1 -10 4 0 6 5 11 10 11 6 0 10 -2 10
-4z m-20 -47 c0 -5 -4 -8 -9 -5 -5 3 -12 -2 -15 -11 -6 -15 -8 -15 -16 -3 -6
9 -5 17 3 22 17 11 37 10 37 -3z m620 -9 c0 -5 -4 -10 -10 -10 -5 0 -10 5 -10
10 0 6 5 10 10 10 6 0 10 -4 10 -10z m188 -3 c22 0 13 -16 -13 -23 -28 -7 -38
-2 -41 22 -2 11 3 13 19 8 12 -4 28 -7 35 -7z m-1108 -38 c-6 -10 -18 -19 -28
-19 -16 1 -16 1 1 11 9 5 17 17 17 25 0 8 5 12 10 9 7 -4 7 -13 0 -26z m199
-2 c-15 -9 -12 -14 18 -34 20 -13 42 -22 49 -19 7 3 16 1 19 -4 4 -6 1 -10 -6
-10 -8 0 -9 -4 0 -13 8 -10 7 -14 -4 -14 -8 0 -15 4 -15 9 0 5 -4 7 -9 4 -5
-4 -11 -2 -13 4 -1 5 -13 7 -25 4 -13 -4 -20 -11 -17 -18 3 -6 -1 -2 -10 9 -8
11 -19 25 -24 30 -5 6 -6 17 -4 24 3 9 0 11 -9 6 -25 -15 0 8 28 25 30 18 50
15 22 -3z m845 -3 c20 -8 21 -34 1 -34 -8 0 -15 5 -15 10 0 6 -9 10 -21 10
-11 0 -17 5 -14 10 7 11 26 13 49 4z m-86 -38 c14 5 14 3 -2 -10 -10 -8 -15
-20 -11 -26 4 -7 -1 -6 -14 2 -12 7 -21 18 -21 25 0 13 24 24 28 12 2 -4 11
-6 20 -3z m-1098 -59 c0 -4 -6 -2 -14 5 -8 7 -12 17 -9 22 5 8 23 -12 23 -27z
m190 18 c9 -10 9 -15 1 -15 -6 0 -11 5 -11 11 0 6 -7 9 -15 5 -8 -3 -15 -1
-15 4 0 15 26 12 40 -5z m1005 -13 c-3 -3 -11 0 -18 7 -9 10 -8 11 6 5 10 -3
15 -9 12 -12z m-1550 -62 c3 -6 -1 -7 -9 -4 -18 7 -21 14 -7 14 6 0 13 -4 16
-10z m969 -80 c-7 -6 -64 56 -64 71 0 6 15 -6 34 -27 19 -21 32 -41 30 -44z
m113 74 c-3 -3 -12 -4 -19 -1 -8 3 -5 6 6 6 11 1 17 -2 13 -5z m73 -15 c0 -17
-19 -19 -34 -3 -21 21 -20 22 9 16 14 -2 25 -8 25 -13z m-60 -9 c0 -5 -4 -10
-10 -10 -5 0 -10 5 -10 10 0 6 5 10 10 10 6 0 10 -4 10 -10z"/>
<path d="M3893 2598 c0 -13 1 -18 3 -12 3 7 15 10 27 7 21 -4 22 -4 3 11 -26
21 -32 20 -33 -6z"/>
<path d="M3700 5610 c0 -5 5 -10 11 -10 5 0 7 5 4 10 -3 6 -8 10 -11 10 -2 0
-4 -4 -4 -10z"/>
<path d="M3766 5571 c-3 -5 1 -14 9 -21 10 -9 15 -9 15 -1 0 6 -5 11 -11 11
-5 0 -7 5 -4 10 3 6 4 10 1 10 -3 0 -7 -4 -10 -9z"/>
<path d="M3322 5210 c3 -15 37 -46 42 -39 1 2 -9 15 -22 29 -14 15 -22 19 -20
10z"/>
<path d="M4236 5195 c-11 -8 -15 -15 -9 -15 6 0 16 7 23 15 16 19 11 19 -14 0z"/>
<path d="M3399 5142 c11 -8 10 -13 -8 -28 -11 -10 -21 -22 -21 -26 0 -12 17
-9 32 5 7 8 20 14 28 14 8 0 24 3 35 6 11 4 26 3 34 -2 16 -10 6 -31 -15 -31
-8 0 -14 -4 -14 -10 0 -13 27 -13 34 -1 7 10 31 9 42 -2 13 -12 20 -8 20 13 0
13 -5 19 -14 15 -10 -4 -12 0 -8 11 5 12 2 15 -10 10 -20 -8 -46 12 -37 28 4
6 -1 5 -10 -3 -9 -7 -17 -10 -17 -5 0 4 -5 3 -12 -4 -15 -15 -32 -16 -23 -2 3
6 2 10 -4 10 -5 0 -18 3 -28 6 -14 4 -15 4 -4 -4z"/>
<path d="M3550 5140 c0 -5 5 -10 10 -10 6 0 10 5 10 10 0 6 -4 10 -10 10 -5 0
-10 -4 -10 -10z"/>
<path d="M4126 5108 c3 -4 9 -8 15 -8 5 0 9 4 9 8 0 5 -7 9 -15 9 -8 0 -12 -4
-9 -9z"/>
<path d="M3320 5091 c0 -5 6 -12 13 -15 14 -7 -19 -1 -48 8 -11 4 -5 -1 13
-10 32 -17 44 -37 20 -33 -18 3 -98 -31 -98 -42 0 -5 -7 -9 -16 -9 -8 0 -13
-4 -10 -9 3 -5 -3 -20 -14 -32 -12 -14 -19 -18 -17 -9 2 8 -1 5 -7 -7 -5 -12
-20 -24 -33 -28 -31 -7 -29 -20 5 -22 15 -1 44 -4 66 -8 34 -5 38 -4 32 12 -4
9 -4 14 0 10 4 -4 15 0 24 8 14 13 22 14 44 4 23 -11 29 -10 44 5 16 16 16 17
-8 8 -39 -14 -52 -5 -34 23 9 14 22 21 30 18 8 -3 22 1 30 8 9 8 22 14 28 14
24 2 86 36 86 48 0 9 -3 8 -9 -2 -6 -10 -10 -10 -16 -1 -5 8 -12 6 -26 -6 -16
-14 -22 -15 -32 -5 -9 10 -9 12 3 9 21 -4 70 36 70 57 0 19 -34 13 -62 -13
-10 -8 -18 -12 -18 -7 0 4 -6 2 -14 -4 -11 -9 -16 -9 -22 0 -5 8 -3 10 7 4 8
-5 5 1 -5 13 -21 24 -26 27 -26 13z m43 -81 c-15 -14 -56 -23 -49 -11 4 6 14
11 22 11 8 0 14 5 14 11 0 5 5 7 11 3 6 -3 7 -10 2 -14z m-100 -37 c10 -9 -31
-35 -43 -28 -13 8 -13 25 1 25 5 0 7 -6 4 -12 -3 -7 0 -5 7 5 14 18 21 21 31
10z m-49 -54 c-10 -16 -24 -9 -24 12 0 18 2 19 15 9 8 -7 12 -16 9 -21z"/>
<path d="M4185 5080 c3 -5 11 -10 16 -10 6 0 7 5 4 10 -3 6 -11 10 -16 10 -6
0 -7 -4 -4 -10z"/>
<path d="M3513 5034 c15 -8 25 -19 22 -23 -3 -5 2 -11 10 -15 8 -3 14 0 12 6
-4 23 -32 48 -52 48 -17 -1 -16 -3 8 -16z"/>
<path d="M2760 5010 c-9 -6 -10 -10 -3 -10 6 0 15 5 18 10 8 12 4 12 -15 0z"/>
<path d="M3910 5009 c0 -5 5 -7 10 -4 6 3 10 8 10 11 0 2 -4 4 -10 4 -5 0 -10
-5 -10 -11z"/>
<path d="M3930 4993 c0 -15 31 -46 38 -38 3 3 -4 15 -16 28 -12 12 -22 16 -22
10z"/>
<path d="M3490 4970 c0 -5 9 -8 20 -7 21 1 18 10 -5 13 -8 1 -15 -2 -15 -6z"/>
<path d="M4030 4969 c0 -5 5 -7 10 -4 6 3 10 8 10 11 0 2 -4 4 -10 4 -5 0 -10
-5 -10 -11z"/>
<path d="M4006 4953 c-4 -5 -13 -8 -18 -8 -6 0 -13 -6 -16 -13 -2 -7 0 -12 5
-11 19 3 34 -2 28 -10 -3 -5 1 -16 9 -24 8 -8 12 -17 9 -21 -4 -3 -4 -6 -1 -6
3 0 12 8 19 17 10 11 10 14 2 9 -7 -4 -13 -2 -13 3 0 22 -2 26 -16 34 -12 7
-13 12 -3 23 12 14 8 20 -5 7z"/>
<path d="M3550 4926 c0 -2 8 -10 18 -17 15 -13 16 -12 3 4 -13 16 -21 21 -21
13z"/>
<path d="M3853 4901 c0 -11 5 -18 9 -15 4 3 5 11 1 19 -7 21 -12 19 -10 -4z"/>
<path d="M3607 4880 c-24 -28 -21 -33 8 -14 14 9 25 20 25 25 0 15 -15 10 -33
-11z"/>
<path d="M4767 4880 c-9 -11 -13 -20 -7 -20 5 0 14 9 20 20 6 11 9 20 8 20 -2
0 -11 -9 -21 -20z"/>
<path d="M2416 4863 c-6 -14 -5 -15 5 -6 7 7 10 15 7 18 -3 3 -9 -2 -12 -12z"/>
<path d="M3111 4863 c-8 -15 -11 -15 -28 -3 -13 10 -15 10 -6 1 6 -7 9 -20 6
-28 -5 -12 -7 -12 -14 -1 -8 12 -11 6 -8 -18 0 -3 -15 -17 -35 -30 -39 -26
-42 -49 -13 -79 11 -11 16 -13 12 -5 -6 12 -5 13 5 3 10 -10 16 -5 29 20 12
24 23 32 43 32 24 1 67 37 68 59 0 4 6 6 14 3 18 -7 40 17 33 35 -3 8 -6 6 -6
-5 -1 -13 -8 -18 -23 -16 -13 2 -32 -2 -43 -8 -22 -12 -67 -2 -47 11 7 4 22 4
35 0 21 -6 21 -6 4 13 -9 11 -14 23 -10 26 3 4 4 7 0 7 -3 0 -10 -8 -16 -17z
m-76 -123 c10 -11 14 -20 9 -20 -5 0 -17 9 -27 20 -9 11 -13 20 -8 20 4 0 16
-9 26 -20z"/>
<path d="M3876 4872 c-3 -5 1 -9 9 -9 8 0 12 4 9 9 -3 4 -7 8 -9 8 -2 0 -6 -4
-9 -8z"/>
<path d="M3548 4834 c-38 -20 -36 -28 2 -9 17 9 30 18 30 20 0 7 -1 6 -32 -11z"/>
<path d="M3461 4811 c0 -14 -9 -33 -18 -43 -16 -18 -16 -18 2 -12 14 6 16 4
10 -6 -5 -8 -4 -11 3 -6 6 4 8 14 5 23 -4 10 -2 14 5 9 6 -3 14 -1 18 5 4 7 3
9 -4 5 -6 -4 -12 5 -15 21 -4 25 -4 26 -6 4z"/>
<path d="M4070 4816 c0 -2 8 -10 18 -17 15 -13 16 -12 3 4 -13 16 -21 21 -21
13z"/>
<path d="M2210 4748 c0 -9 5 -20 10 -23 13 -8 13 5 0 25 -8 13 -10 13 -10 -2z"/>
<path d="M3374 4745 c-10 -8 -14 -15 -8 -15 6 0 17 7 24 15 16 19 9 19 -16 0z"/>
<path d="M4141 4738 c5 -10 14 -18 19 -18 6 0 10 -6 10 -13 0 -7 9 -13 20 -14
26 -2 26 14 0 22 -11 4 -18 11 -15 16 4 5 -2 6 -11 2 -13 -5 -16 -2 -12 9 4 8
1 15 -7 15 -10 0 -11 -5 -4 -19z"/>
<path d="M2951 4727 c-8 -10 -7 -14 2 -14 8 0 14 6 14 14 0 7 -1 13 -2 13 -2
0 -8 -6 -14 -13z"/>
<path d="M3394 4718 c-12 -13 -21 -15 -29 -8 -18 15 -45 2 -38 -17 4 -11 2
-14 -6 -9 -7 5 -10 2 -9 -6 5 -23 22 -28 48 -11 24 14 24 14 -3 -11 -15 -15
-32 -24 -37 -21 -6 3 -10 0 -10 -7 0 -8 -10 -14 -22 -15 -13 0 -17 1 -10 4 20
8 14 18 -13 21 -31 2 -42 -16 -19 -32 17 -13 17 -14 -4 -20 -26 -8 -45 1 -36
16 4 7 2 8 -5 4 -9 -6 -9 -11 -1 -21 11 -14 4 -62 -7 -51 -4 3 -12 1 -20 -5
-17 -14 -17 2 0 20 8 9 8 12 0 7 -6 -3 -14 0 -16 6 -3 7 -4 -9 -2 -35 3 -43 2
-47 -10 -31 -7 10 -10 25 -7 32 3 10 -2 8 -16 -4 -22 -19 -29 -44 -13 -44 5 0
11 6 14 13 2 6 7 9 11 6 10 -10 -5 -40 -17 -32 -6 4 -8 0 -4 -10 4 -10 -3 -21
-19 -31 -13 -9 -24 -24 -24 -32 0 -11 -6 -15 -20 -11 -23 6 -75 -47 -64 -65 4
-6 3 -9 -2 -6 -5 3 -17 -3 -26 -14 -18 -18 -18 -19 2 -22 25 -3 6 -21 -20 -20
-35 2 -40 -13 -8 -25 l21 -8 -21 -15 c-12 -8 -19 -18 -15 -21 3 -4 -7 -7 -23
-7 -16 0 -24 -4 -18 -8 17 -11 13 -41 -4 -34 -11 4 -14 1 -9 -11 3 -9 1 -19
-5 -23 -7 -5 -8 -2 -3 6 5 9 4 11 -4 6 -6 -4 -9 -11 -6 -16 3 -5 -1 -20 -9
-32 -17 -28 -16 -170 2 -176 9 -3 9 -9 0 -25 -7 -12 -12 -25 -13 -29 0 -3 -3
-10 -7 -14 -5 -4 -8 -12 -8 -18 0 -5 6 -2 13 8 13 17 14 17 28 0 7 -10 9 -15
3 -11 -7 4 -14 0 -18 -8 -3 -8 -1 -17 4 -20 6 -4 10 -1 10 6 0 7 3 9 6 6 4 -4
2 -12 -4 -20 -12 -14 -6 -53 11 -74 7 -9 5 -13 -7 -13 -9 0 -16 7 -16 15 0 8
-5 15 -10 15 -7 0 -7 -6 -2 -17 5 -10 7 -25 5 -33 -4 -13 -3 -13 6 0 12 17 12
18 15 -30 1 -19 8 -46 15 -59 7 -13 9 -21 3 -17 -10 6 -26 -23 -17 -32 3 -3 5
-1 5 5 0 18 26 10 27 -9 1 -10 -3 -18 -8 -18 -6 0 -7 5 -3 12 4 7 3 8 -4 4 -6
-4 -9 -13 -5 -21 3 -9 -1 -15 -11 -15 -9 0 -16 -5 -16 -11 0 -5 -6 -7 -12 -3
-7 4 -10 4 -6 -1 4 -4 3 -14 -4 -22 -6 -7 -8 -16 -4 -20 3 -3 6 -1 6 5 0 17
20 15 41 -4 16 -15 17 -14 12 5 -3 12 -10 21 -16 21 -8 0 -8 3 0 11 15 15 47
3 37 -13 -4 -7 2 -5 13 5 11 9 24 17 30 17 15 0 23 -24 16 -48 -2 -11 5 -38
16 -61 27 -51 13 -55 -14 -3 -19 34 -53 53 -48 25 2 -7 -3 -10 -11 -7 -8 3
-17 0 -22 -7 -4 -7 -3 -10 4 -5 17 10 57 -40 77 -97 10 -29 32 -65 48 -82 17
-16 27 -23 22 -15 -8 13 -7 13 8 1 9 -7 17 -20 17 -28 0 -8 5 -11 11 -7 6 3
15 0 20 -7 4 -8 4 -16 -3 -20 -7 -4 -7 -9 1 -13 6 -4 11 -2 11 5 0 8 5 7 17
-2 11 -10 14 -10 9 -2 -10 18 -16 54 -8 49 4 -2 13 2 20 10 11 12 9 14 -7 14
-15 0 -20 6 -18 22 1 14 -4 23 -13 23 -9 0 -14 10 -15 27 0 15 -6 33 -12 40
-10 9 -13 8 -13 -9 0 -12 -10 -29 -22 -38 -17 -12 -18 -15 -6 -13 9 2 18 -1
19 -7 1 -5 -4 -11 -13 -13 -20 -4 -39 48 -26 71 5 9 6 17 3 17 -3 0 -1 9 5 21
20 36 20 57 0 62 -14 3 -21 18 -26 46 -4 26 -14 46 -26 52 -10 5 -16 14 -12
20 4 7 10 7 18 0 22 -18 105 -50 110 -42 3 4 0 8 -7 8 -18 0 -132 71 -133 83
-1 5 -2 15 -3 21 0 5 -6 7 -11 4 -6 -4 -8 -12 -4 -18 3 -7 -2 -3 -10 7 -9 11
-16 26 -16 34 0 7 -4 10 -10 7 -5 -3 -10 -1 -10 4 0 6 3 11 8 11 4 0 8 12 9
26 0 15 7 30 15 35 12 8 4 13 -16 10 -5 -1 -4 5 3 13 7 9 17 13 22 10 5 -3 5
5 1 18 -10 29 -9 59 2 77 7 10 5 12 -5 6 -12 -7 -12 -5 -1 6 11 12 14 12 22
-1 7 -10 10 -11 10 -2 0 6 -8 20 -17 30 -28 27 -24 113 6 146 15 16 22 32 18
45 -3 15 3 27 21 41 15 10 22 20 15 20 -13 0 23 72 39 78 18 8 7 53 -14 62
-19 8 -17 9 11 4 23 -4 31 -3 27 5 -4 6 -1 20 7 31 13 18 16 19 29 7 12 -12
17 -13 33 -1 18 14 18 14 -1 15 -10 1 -22 1 -26 0 -15 -2 -8 19 11 38 11 11
17 22 14 25 -4 3 -2 6 4 6 6 0 13 9 16 19 4 16 11 19 46 15 26 -3 41 -1 41 6
0 6 -7 10 -16 8 -10 -2 -19 3 -21 10 -3 7 -1 12 4 11 19 -3 33 2 33 12 0 5 -5
7 -12 3 -7 -4 -8 -3 -4 4 7 11 96 -47 90 -59 -2 -5 20 -4 46 0 3 1 -19 15 -47
31 -29 17 -53 33 -53 36 0 13 55 49 71 46 9 -2 19 5 21 16 5 19 48 38 48 21 0
-5 -9 -9 -20 -9 -23 0 -27 -15 -5 -24 16 -6 48 21 40 34 -3 5 3 11 14 15 22 7
36 35 18 35 -7 0 -17 -4 -22 -9 -6 -5 -19 -5 -30 -1 -19 7 -19 7 3 19 12 7 26
10 31 7 5 -3 15 2 22 12 11 14 11 15 0 5 -7 -6 -20 -10 -27 -7 -49 15 -49 15
-16 31 18 9 30 18 28 21 -3 2 -1 13 5 23 6 13 6 19 -1 19 -5 0 -10 5 -10 11 0
5 4 8 9 4 5 -3 12 -2 15 3 10 17 -24 8 -40 -10z m-43 -31 c-10 -9 -11 -8 -5 6
3 10 9 15 12 12 3 -3 0 -11 -7 -18z m-62 -120 c-28 -21 -59 -36 -59 -29 0 9
37 30 54 31 5 1 7 0 5 -2z m51 -7 c-19 -13 -30 -13 -30 0 0 6 10 10 23 10 18
0 19 -2 7 -10z m-77 -37 c-18 -9 -33 -23 -33 -30 0 -8 -4 -11 -10 -8 -16 10
-12 48 3 42 8 -3 20 -1 28 4 8 5 21 8 29 8 8 0 0 -8 -17 -16z m-66 -17 c-3 -8
-1 -16 5 -18 6 -2 5 -8 -4 -15 -11 -10 -14 -7 -12 15 2 31 2 32 10 32 3 0 4
-6 1 -14z m-206 -319 c-10 -9 -11 -8 -5 6 3 10 9 15 12 12 3 -3 0 -11 -7 -18z
m-81 -131 c0 -8 -7 -16 -15 -20 -13 -4 -14 -2 -5 14 13 23 20 26 20 6z m-55
-35 c-4 -17 -11 -33 -16 -36 -5 -4 -7 0 -5 7 3 7 7 26 11 42 3 15 8 26 11 23
3 -3 3 -19 -1 -36z m75 -518 c-1 -17 -28 -44 -35 -34 -3 6 0 17 7 25 14 16 28
21 28 9z"/>
<path d="M3680 4736 c0 -2 8 -10 18 -17 15 -13 16 -12 3 4 -13 16 -21 21 -21
13z"/>
<path d="M2862 4725 c3 -3 16 -8 28 -10 12 -2 20 -1 16 2 -4 4 -16 8 -28 10
-12 2 -19 1 -16 -2z"/>
<path d="M3450 4722 c0 -5 11 -19 25 -32 14 -13 25 -21 25 -18 0 3 -11 17 -25
32 -14 15 -25 23 -25 18z"/>
<path d="M3519 4703 c-13 -15 -12 -15 9 -4 23 12 28 21 13 21 -5 0 -15 -7 -22
-17z"/>
<path d="M4146 4692 c-2 -4 -1 -14 5 -22 7 -12 9 -10 9 8 0 23 -5 28 -14 14z"/>
<path d="M2936 4679 c4 -8 30 -6 38 2 3 3 -5 5 -19 5 -13 0 -22 -3 -19 -7z"/>
<path d="M3577 4683 c-10 -9 -9 -23 1 -23 5 0 9 7 9 15 0 17 -1 18 -10 8z"/>
<path d="M3497 4654 c-32 -27 -35 -39 -7 -24 11 6 28 10 37 8 12 -2 18 4 19
18 1 27 -16 26 -49 -2z"/>
<path d="M2921 4620 c16 -24 26 -28 32 -14 1 4 -9 14 -23 23 l-25 16 16 -25z"/>
<path d="M2975 4616 c14 -22 32 -32 75 -41 8 -2 16 -9 18 -14 2 -6 9 -11 15
-11 6 0 0 11 -13 25 -13 14 -29 25 -37 25 -7 0 -13 4 -13 8 0 8 -43 32 -56 32
-2 0 3 -11 11 -24z"/>
<path d="M3843 4625 c0 -8 4 -12 8 -9 4 2 10 -2 12 -8 4 -8 6 -9 6 -2 1 6 -5
17 -12 23 -10 8 -14 7 -14 -4z"/>
<path d="M3556 4621 c-4 -7 -6 -13 -5 -14 2 -1 15 -11 29 -22 25 -20 25 -20 9
0 -9 11 -18 27 -21 35 -3 11 -6 11 -12 1z"/>
<path d="M4530 4621 c0 -6 4 -13 10 -16 6 -3 7 1 4 9 -7 18 -14 21 -14 7z"/>
<path d="M4020 4604 c0 -3 7 -12 15 -20 16 -17 18 -14 9 10 -6 15 -24 23 -24
10z"/>
<path d="M4639 4578 c-5 -15 -9 -61 -5 -58 6 7 16 60 10 60 -2 0 -4 -1 -5 -2z"/>
<path d="M4675 4560 c-5 -8 -4 -11 2 -7 12 8 26 -20 18 -33 -3 -5 0 -12 7 -16
7 -4 10 -4 6 1 -4 4 -2 17 4 29 6 11 7 18 3 14 -4 -4 -13 0 -20 9 -9 13 -14
13 -20 3z"/>
<path d="M2887 4549 c7 -7 15 -10 18 -7 3 3 -2 9 -12 12 -14 6 -15 5 -6 -5z"/>
<path d="M2902 4526 c-13 -6 -26 -23 -29 -37 -3 -16 -15 -29 -34 -36 -16 -6
-29 -16 -29 -21 0 -6 13 -4 30 5 17 8 42 16 56 18 13 1 26 4 27 6 1 2 11 15
22 28 18 21 18 24 3 18 -16 -6 -23 3 -19 26 0 4 0 6 -1 6 -2 -1 -13 -7 -26
-13z m12 -21 c-4 -8 -11 -15 -16 -15 -6 0 -5 6 2 15 7 8 14 15 16 15 2 0 1 -7
-2 -15z"/>
<path d="M2730 4511 c0 -5 7 -12 16 -15 14 -5 15 -4 4 9 -14 17 -20 19 -20 6z"/>
<path d="M4195 4490 c3 -5 8 -10 11 -10 2 0 4 5 4 10 0 6 -5 10 -11 10 -5 0
-7 -4 -4 -10z"/>
<path d="M4635 4468 c-21 -44 -19 -47 8 -10 13 17 26 29 29 26 4 -3 8 -1 11 3
3 5 -3 9 -13 10 -12 1 -25 -10 -35 -29z"/>
<path d="M4175 4470 c3 -5 8 -10 11 -10 2 0 4 5 4 10 0 6 -5 10 -11 10 -5 0
-7 -4 -4 -10z"/>
<path d="M2950 4453 c0 -11 -11 -28 -24 -37 -23 -15 -25 -15 -21 3 2 13 -2 18
-13 17 -10 -2 -17 -12 -17 -26 0 -13 -6 -25 -13 -28 -6 -2 -12 -13 -12 -25 0
-13 3 -17 8 -11 9 14 82 54 100 54 21 0 25 27 8 52 -16 22 -16 22 -16 1z"/>
<path d="M3066 4445 c-4 -14 -11 -23 -16 -20 -10 6 -25 -13 -16 -22 7 -7 44
25 57 49 7 13 6 18 -5 18 -7 0 -17 -11 -20 -25z"/>
<path d="M3909 4453 c-13 -16 -12 -17 4 -4 16 13 21 21 13 21 -2 0 -10 -8 -17
-17z"/>
<path d="M4662 4458 c-7 -9 -7 -19 -2 -28 5 -8 6 -26 3 -40 -6 -25 -6 -25 15
-6 15 13 20 27 17 44 -6 34 -19 46 -33 30z m21 -13 c4 -8 1 -17 -5 -21 -7 -4
-8 -3 -4 4 4 7 2 12 -4 12 -6 0 -8 5 -5 10 8 14 12 13 18 -5z"/>
<path d="M4002 4440 c7 -11 16 -20 20 -20 5 0 3 9 -4 20 -7 11 -16 20 -20 20
-5 0 -3 -9 4 -20z"/>
<path d="M4040 4411 c0 -5 5 -13 10 -16 6 -3 10 -2 10 4 0 5 -4 13 -10 16 -5
3 -10 2 -10 -4z"/>
<path d="M4115 4390 c-21 -22 -31 -27 -37 -18 -6 10 -8 10 -8 1 0 -16 17 -26
25 -14 3 6 12 8 20 4 9 -3 15 1 15 10 0 8 5 17 12 19 6 2 9 10 7 16 -3 8 -15
2 -34 -18z"/>
<path d="M4637 4393 c-4 -3 -7 -13 -7 -22 1 -13 3 -13 11 2 11 19 8 33 -4 20z"/>
<path d="M3344 4373 c10 -11 37 -12 30 -2 -3 5 -12 9 -21 9 -9 0 -13 -3 -9 -7z"/>
<path d="M3390 4370 c0 -5 5 -10 11 -10 5 0 7 5 4 10 -3 6 -8 10 -11 10 -2 0
-4 -4 -4 -10z"/>
<path d="M3412 4360 c-6 -11 -18 -17 -25 -14 -8 3 -18 -6 -25 -20 -10 -22 -9
-24 10 -21 12 3 26 -3 34 -13 7 -9 16 -14 19 -10 4 4 0 14 -9 23 -20 21 -21
35 -1 35 8 0 15 9 15 20 0 25 -2 25 -18 0z"/>
<path d="M3510 4366 c0 -2 7 -9 15 -16 13 -11 14 -10 9 4 -5 14 -24 23 -24 12z"/>
<path d="M3965 4359 c-4 -6 -17 -14 -29 -19 l-21 -9 23 0 c12 -1 22 3 22 8 0
4 11 7 25 6 30 -4 32 1 6 15 -14 7 -22 7 -26 -1z"/>
<path d="M2804 4344 c-18 -14 -18 -14 6 -3 31 14 36 19 24 19 -6 0 -19 -7 -30
-16z"/>
<path d="M3244 4335 c-4 -10 -14 -15 -25 -12 -12 3 -16 0 -12 -9 3 -8 -1 -14
-11 -14 -9 0 -16 5 -16 10 0 7 -7 7 -21 0 -28 -16 -18 -35 16 -33 18 2 33 -4
41 -16 8 -10 23 -17 36 -16 13 1 28 3 35 4 7 0 19 13 27 29 12 23 15 25 21 10
4 -10 15 -18 24 -18 14 1 14 2 -1 14 -10 7 -18 18 -18 25 0 6 -5 11 -11 11 -5
0 -8 4 -4 9 3 6 -3 10 -12 10 -10 -1 -28 2 -40 6 -17 5 -25 3 -29 -10z m16
-69 c0 -12 -13 -14 -40 -6 -4 1 24 16 38 19 1 1 2 -5 2 -13z"/>
<path d="M4100 4337 c0 -5 -9 -7 -20 -4 -11 3 -22 1 -25 -3 -3 -5 -23 -11 -46
-15 -41 -7 -49 -27 -11 -30 11 -1 19 2 16 7 -3 4 2 8 10 8 8 0 18 -5 21 -10 5
-8 11 -8 20 0 13 11 40 13 112 10 24 -1 41 -5 39 -9 -3 -4 7 -7 22 -6 18 0 28
6 30 18 5 24 -15 46 -36 42 -9 -2 -23 -4 -30 -4 -8 -1 -10 -6 -6 -13 6 -10 4
-10 -8 0 -13 10 -17 10 -21 0 -4 -8 -6 -6 -6 5 -1 13 -8 17 -31 15 -16 -1 -30
-6 -30 -11z m143 -14 c-7 -2 -19 -2 -25 0 -7 3 -2 5 12 5 14 0 19 -2 13 -5z
m-182 -26 c-10 -9 -11 -8 -5 6 3 10 9 15 12 12 3 -3 0 -11 -7 -18z"/>
<path d="M2857 4326 c-11 -8 -14 -17 -8 -20 5 -4 15 3 21 14 13 23 11 24 -13
6z"/>
<path d="M2940 4330 c-8 -5 -10 -10 -5 -10 6 0 17 5 25 10 8 5 11 10 5 10 -5
0 -17 -5 -25 -10z"/>
<path d="M3110 4326 c0 -2 7 -7 16 -10 8 -3 12 -2 9 4 -6 10 -25 14 -25 6z"/>
<path d="M2888 4299 c-17 -18 -11 -28 6 -11 7 7 11 8 39 11 8 1 7 4 -3 11 -19
13 -22 12 -42 -11z"/>
<path d="M3071 4253 c22 -28 32 -33 46 -21 19 15 16 27 -6 21 -10 -3 -22 0
-25 6 -4 6 -12 11 -18 11 -6 0 -5 -7 3 -17z"/>
<path d="M2870 4235 c-24 -13 -24 -14 -3 -12 12 1 25 7 27 14 6 16 7 16 -24
-2z"/>
<path d="M2804 4206 c-16 -18 -24 -45 -14 -51 4 -3 10 0 12 7 3 7 12 9 23 5
17 -7 17 -9 -3 -27 -12 -11 -27 -20 -35 -20 -7 0 -18 -5 -24 -11 -13 -13 -36
-3 -28 12 4 5 15 9 26 9 10 0 19 4 19 10 0 5 -10 8 -22 6 -13 -2 -29 2 -37 8
-12 9 -13 8 -5 -4 5 -8 9 -26 9 -40 0 -15 6 -25 15 -25 8 -1 14 -6 13 -11 -1
-7 8 -9 22 -6 25 4 35 22 13 22 -6 0 7 13 29 29 22 16 40 36 40 44 0 9 -3 16
-6 15 -3 0 -17 0 -30 1 -20 1 -22 3 -11 16 15 18 10 28 -6 11z"/>
<path d="M3616 4209 c2 -4 -5 -10 -16 -14 -11 -3 -20 -11 -20 -16 0 -12 32 4
48 24 9 11 8 14 -3 14 -8 0 -12 -4 -9 -8z"/>
<path d="M3639 4188 l-23 -33 30 25 c16 14 30 26 32 26 2 1 -1 5 -7 8 -5 3
-20 -8 -32 -26z"/>
<path d="M2830 4199 c0 -5 5 -7 10 -4 6 3 10 8 10 11 0 2 -4 4 -10 4 -5 0 -10
-5 -10 -11z"/>
<path d="M4515 4200 c-3 -5 -1 -10 4 -10 6 0 11 5 11 10 0 6 -2 10 -4 10 -3 0
-8 -4 -11 -10z"/>
<path d="M3555 4160 c-3 -5 -1 -10 4 -10 6 0 11 5 11 10 0 6 -2 10 -4 10 -3 0
-8 -4 -11 -10z"/>
<path d="M3596 4145 c-9 -26 -7 -32 5 -12 6 10 9 21 6 23 -2 3 -7 -2 -11 -11z"/>
<path d="M3690 4150 c0 -5 5 -10 11 -10 5 0 7 5 4 10 -3 6 -8 10 -11 10 -2 0
-4 -4 -4 -10z"/>
<path d="M3640 4140 c-8 -5 -12 -12 -9 -15 4 -3 12 1 19 10 14 17 11 19 -10 5z"/>
<path d="M5066 4127 c3 -10 9 -15 12 -12 3 3 0 11 -7 18 -10 9 -11 8 -5 -6z"/>
<path d="M3880 4100 c6 -11 9 -31 6 -43 -4 -15 -2 -13 7 6 7 15 16 24 20 21 4
-4 7 -5 7 -2 0 3 -12 13 -26 23 -25 16 -25 16 -14 -5z"/>
<path d="M4599 4108 c-6 -12 -5 -48 1 -48 4 0 7 11 6 25 -1 22 -3 30 -7 23z"/>
<path d="M3595 4090 c-3 -5 -1 -10 4 -10 6 0 11 5 11 10 0 6 -2 10 -4 10 -3 0
-8 -4 -11 -10z"/>
<path d="M3000 4070 c-9 -6 -10 -10 -3 -10 6 0 15 5 18 10 8 12 4 12 -15 0z"/>
<path d="M3530 4065 c0 -19 36 -39 45 -25 8 13 -13 40 -31 40 -8 0 -14 -7 -14
-15z"/>
<path d="M4110 4048 c0 -41 12 -67 32 -74 27 -8 32 0 11 21 -16 17 -16 17 5
11 13 -5 22 -3 22 3 0 6 -8 11 -19 11 -22 0 -45 25 -36 40 3 5 1 10 -4 10 -6
0 -11 -10 -11 -22z"/>
<path d="M4957 4048 c9 -10 21 -18 27 -18 6 0 3 7 -6 14 -10 7 -16 15 -13 18
3 2 -2 5 -10 5 -13 0 -13 -3 2 -19z"/>
<path d="M2346 4046 c3 -9 10 -16 15 -16 5 0 8 -5 7 -11 -2 -7 9 -15 25 -20
15 -4 27 -6 27 -4 0 2 -18 18 -40 35 -23 18 -37 25 -34 16z"/>
<path d="M2795 4051 c-3 -5 -19 -8 -35 -6 -16 2 -31 1 -34 -3 -9 -14 62 -11
74 3 7 8 10 15 7 15 -3 0 -8 -4 -12 -9z"/>
<path d="M4085 4050 c3 -5 8 -10 11 -10 2 0 4 5 4 10 0 6 -5 10 -11 10 -5 0
-7 -4 -4 -10z"/>
<path d="M3410 4020 c-14 -15 -34 -31 -45 -37 -11 -7 -16 -15 -11 -20 5 -4 11
-2 13 5 4 10 8 10 21 0 12 -10 14 -10 8 0 -4 6 -2 12 3 12 6 0 11 7 11 15 0
15 39 41 55 36 6 -1 6 1 2 5 -15 15 -32 10 -57 -16z"/>
<path d="M3517 4033 c-4 -3 -7 -11 -7 -17 0 -6 5 -5 12 2 6 6 9 14 7 17 -3 3
-9 2 -12 -2z"/>
<path d="M2694 4006 c-4 -11 -12 -13 -31 -5 -39 15 -46 11 -29 -16 18 -27 13
-50 -9 -41 -7 2 -21 -4 -31 -15 -13 -15 -14 -19 -3 -19 8 0 25 -3 39 -7 21 -5
23 -4 14 8 -9 11 -9 17 1 26 7 6 16 9 19 6 4 -4 13 3 22 15 8 12 18 20 22 18
4 -2 8 7 8 20 2 26 -13 33 -22 10z"/>
<path d="M4737 3999 c7 -7 15 -10 18 -7 3 3 -2 9 -12 12 -14 6 -15 5 -6 -5z"/>
<path d="M3880 3996 c0 -2 8 -10 18 -17 15 -13 16 -12 3 4 -13 16 -21 21 -21
13z"/>
<path d="M3670 3986 c0 -2 8 -10 18 -17 15 -13 16 -12 3 4 -13 16 -21 21 -21
13z"/>
<path d="M4193 3983 c-7 -2 -13 -11 -13 -19 0 -11 -7 -13 -26 -8 -24 6 -26 5
-19 -17 4 -13 11 -26 15 -29 4 -3 20 -27 35 -55 30 -51 42 -65 60 -65 6 1 2 5
-7 10 -9 6 -20 25 -24 43 -10 41 -9 39 -19 60 -4 10 -3 34 3 53 5 19 9 34 9
33 -1 0 -8 -3 -14 -6z"/>
<path d="M4610 3976 c7 -7 14 -6 21 1 9 9 7 12 -9 10 -14 -1 -18 -5 -12 -11z"/>
<path d="M2405 3970 c3 -5 8 -10 11 -10 2 0 4 5 4 10 0 6 -5 10 -11 10 -5 0
-7 -4 -4 -10z"/>
<path d="M2433 3960 c-1 -10 12 -33 28 -51 16 -18 29 -37 29 -42 0 -5 8 -6 17
-3 14 6 14 3 -3 -15 -17 -20 -17 -22 -1 -16 19 7 21 0 8 -22 -8 -12 -12 -12
-26 2 -20 21 -22 21 -22 2 0 -8 4 -12 8 -10 3 3 12 -2 19 -10 7 -8 9 -15 4
-16 -5 0 2 -5 16 -11 15 -6 20 -12 13 -15 -7 -3 -13 -9 -13 -14 0 -6 5 -7 10
-4 6 3 10 1 10 -4 0 -6 7 -11 16 -11 13 0 15 6 10 28 -4 15 -7 37 -7 50 1 12
-4 22 -9 22 -6 0 -10 -5 -10 -12 0 -6 -3 -9 -6 -5 -3 3 -1 14 5 24 6 10 11 14
11 8 0 -5 5 -3 11 5 9 13 10 12 5 -2 -6 -20 -3 -22 22 -9 9 5 25 12 35 15 18
6 24 36 6 36 -5 0 -7 -4 -4 -10 4 -6 -12 -10 -42 -9 -26 0 -42 3 -35 6 6 2 12
11 12 19 0 12 -3 12 -20 2 -18 -12 -24 -9 -55 24 -41 43 -45 57 -10 34 14 -9
25 -13 25 -8 0 4 -13 15 -28 24 -26 16 -28 16 -29 -2z"/>
<path d="M3495 3970 c-3 -5 -1 -10 4 -10 6 0 11 5 11 10 0 6 -2 10 -4 10 -3 0
-8 -4 -11 -10z"/>
<path d="M3343 3921 c-10 -16 -9 -22 5 -33 15 -12 16 -11 3 4 -11 15 -11 19 3
24 9 3 16 10 16 15 0 15 -15 10 -27 -10z"/>
<path d="M4102 3928 c-15 -15 -16 -48 -1 -48 5 0 7 -4 4 -10 -3 -5 3 -10 14
-10 11 0 23 -4 26 -10 3 -5 1 -10 -4 -10 -6 0 -11 -5 -11 -11 0 -5 5 -7 10 -4
9 6 14 -8 11 -28 -1 -5 3 -6 9 -2 9 5 14 -7 11 -27 0 -4 6 -5 14 -2 19 8 19
10 -4 42 -10 15 -18 31 -18 35 1 12 -37 97 -43 97 -4 0 -11 -5 -18 -12z"/>
<path d="M3403 3899 c9 -15 6 -22 -15 -42 -20 -19 -25 -30 -20 -53 6 -28 7
-28 13 11 3 22 7 32 8 22 2 -31 26 -13 29 22 2 23 7 30 16 24 6 -4 4 -1 -6 8
-9 9 -15 19 -13 21 3 3 -1 5 -9 5 -11 0 -12 -4 -3 -18z"/>
<path d="M3493 3902 c0 -18 15 -42 27 -42 4 0 7 11 6 24 0 13 -3 22 -5 20 -2
-2 -9 1 -16 6 -8 7 -12 4 -12 -8z m21 -18 c3 -8 2 -12 -4 -9 -6 3 -10 10 -10
16 0 14 7 11 14 -7z"/>
<path d="M4228 3903 c6 -2 10 -9 6 -14 -3 -5 1 -9 9 -9 19 0 51 -36 43 -49 -4
-5 -2 -12 2 -15 5 -3 9 3 8 13 -1 23 -51 81 -69 80 -9 0 -9 -2 1 -6z"/>
<path d="M2440 3866 c0 -8 4 -17 9 -21 6 -3 9 4 8 15 -1 23 -17 28 -17 6z"/>
<path d="M3480 3850 c13 -9 7 -14 -12 -11 -4 0 -4 -7 -1 -16 6 -14 7 -14 19 2
14 19 10 35 -9 35 -7 0 -6 -4 3 -10z"/>
<path d="M4248 3854 c-4 -5 0 -18 8 -29 15 -20 17 -12 5 19 -4 11 -10 15 -13
10z"/>
<path d="M2950 3843 c0 -4 5 -15 10 -23 8 -13 10 -13 10 2 0 9 -4 20 -10 23
-5 3 -10 3 -10 -2z"/>
<path d="M3510 3840 c0 -5 0 -13 1 -16 0 -4 -5 -11 -13 -15 -10 -7 -10 -9 0
-9 7 0 11 -4 8 -9 -7 -11 20 -8 31 3 4 4 4 7 -2 6 -21 -5 -29 1 -15 10 9 6 11
10 3 10 -7 0 -10 7 -7 15 4 8 3 15 0 15 -3 0 -6 -4 -6 -10z"/>
<path d="M3904 3820 c0 -13 4 -16 10 -10 7 7 7 13 0 20 -6 6 -10 3 -10 -10z"/>
<path d="M4734 3804 c3 -30 26 -75 26 -49 0 5 6 0 14 -11 14 -17 14 -15 11 25
-5 43 -15 70 -15 38 0 -9 -4 -17 -10 -17 -5 0 -10 11 -10 25 0 14 -4 25 -9 25
-5 0 -8 -16 -7 -36z m31 -32 c-3 -3 -11 0 -18 7 -9 10 -8 11 6 5 10 -3 15 -9
12 -12z"/>
<path d="M2660 3795 c0 -2 6 -8 13 -14 10 -8 14 -7 14 2 0 8 -6 14 -14 14 -7
0 -13 -1 -13 -2z"/>
<path d="M4261 3777 c-6 -16 -11 -33 -11 -39 0 -6 -7 -5 -17 3 -15 13 -15 12
-5 -8 7 -12 12 -34 12 -50 1 -24 2 -26 11 -10 9 15 13 16 27 5 11 -9 9 -3 -5
17 -19 28 -20 33 -6 58 8 16 12 34 10 40 -3 7 -10 -1 -16 -16z"/>
<path d="M4387 3789 c7 -7 15 -10 18 -7 3 3 -2 9 -12 12 -14 6 -15 5 -6 -5z"/>
<path d="M2956 3777 c7 -19 42 -42 52 -33 3 3 0 6 -6 6 -7 0 -12 8 -13 18 0
11 -2 12 -6 4 -4 -10 -9 -9 -19 5 -13 17 -14 17 -8 0z"/>
<path d="M4210 3786 c0 -2 8 -10 18 -17 15 -13 16 -12 3 4 -13 16 -21 21 -21
13z"/>
<path d="M4658 3767 c-4 -19 -1 -24 11 -22 16 3 17 23 2 38 -5 5 -11 -3 -13
-16z"/>
<path d="M2620 3772 c0 -4 10 -13 23 -21 22 -14 22 -14 3 8 -20 22 -26 25 -26
13z"/>
<path d="M3620 3776 c0 -2 8 -10 18 -17 15 -13 16 -12 3 4 -13 16 -21 21 -21
13z"/>
<path d="M2567 3759 c6 -6 9 -19 6 -28 -4 -13 -3 -13 5 -2 9 12 13 12 27 -2 9
-10 21 -17 27 -17 6 0 -6 14 -27 30 -37 30 -60 41 -38 19z"/>
<path d="M3121 3734 c-24 -18 -38 -34 -31 -34 8 0 22 8 33 18 11 9 17 11 13 5
-4 -7 -3 -13 2 -13 6 0 15 14 21 30 5 17 9 30 8 29 -1 0 -22 -16 -46 -35z"/>
<path d="M5009 3743 l-24 -26 27 19 c15 10 28 22 28 27 0 12 -5 8 -31 -20z"/>
<path d="M3690 3749 c0 -5 5 -7 10 -4 6 3 10 8 10 11 0 2 -4 4 -10 4 -5 0 -10
-5 -10 -11z"/>
<path d="M4423 3741 c-1 -13 5 -18 23 -18 l24 0 -21 18 c-12 11 -23 19 -23 19
-1 0 -2 -8 -3 -19z"/>
<path d="M5213 3753 c-7 -3 -13 -9 -13 -15 0 -6 7 -4 17 3 15 12 16 12 10 -3
-3 -10 -2 -18 4 -18 6 0 8 -4 4 -9 -3 -5 -1 -12 5 -16 5 -3 10 -1 10 5 0 6 5
8 10 5 6 -4 5 4 -1 19 -13 27 -27 36 -46 29z"/>
<path d="M2469 3728 c-1 -7 -1 -17 0 -21 1 -4 -16 -15 -36 -24 -28 -12 -33
-18 -20 -21 10 -2 24 1 31 7 9 8 18 4 34 -14 12 -14 33 -25 46 -25 14 0 28 -4
31 -10 3 -5 10 -10 16 -10 12 0 12 37 -1 45 -8 5 -7 11 0 20 7 8 9 19 5 25 -9
14 -32 13 -38 -2 -3 -8 -6 -6 -6 5 -1 10 -9 17 -22 17 -11 0 -17 5 -14 10 3 6
-1 10 -9 10 -9 0 -17 -6 -17 -12z"/>
<path d="M2942 3728 c-20 -20 -13 -32 7 -14 17 15 19 16 25 1 3 -9 4 -21 1
-25 -11 -18 17 -21 29 -4 13 17 14 16 21 -5 5 -18 1 -29 -19 -48 -30 -27 -33
-35 -11 -27 8 4 15 10 15 15 0 5 5 9 12 9 6 0 1 -12 -13 -27 -13 -15 -17 -23
-9 -17 20 14 66 2 63 -17 -4 -20 38 -66 92 -100 26 -16 44 -25 40 -19 -10 15
7 12 42 -9 31 -19 31 -19 36 1 4 14 11 19 21 15 9 -4 15 -1 13 6 -1 7 4 11 11
9 10 -2 10 2 2 18 -6 11 -7 26 -3 33 4 6 8 15 9 20 1 4 2 8 3 10 9 11 5 79 -5
88 -15 12 -23 1 -30 -38 -7 -35 -13 -45 -26 -37 -7 4 -8 2 -4 -5 4 -6 12 -9
17 -6 5 4 9 -3 9 -14 0 -10 -6 -21 -12 -24 -10 -4 -10 -7 0 -18 15 -16 16 -29
2 -29 -5 0 -10 4 -10 10 0 15 -33 50 -42 44 -14 -9 -49 16 -58 42 -5 13 -14
24 -20 24 -6 0 -9 -4 -6 -8 2 -4 -7 -8 -22 -7 -28 0 -32 12 -17 48 4 10 3 17
-4 17 -6 0 -11 -9 -11 -19 0 -23 -11 -32 -28 -22 -8 5 -6 15 8 36 l19 28 -33
33 c-35 35 -94 52 -114 32z m148 -174 c0 -8 -4 -12 -10 -9 -5 3 -10 10 -10 16
0 5 5 9 10 9 6 0 10 -7 10 -16z"/>
<path d="M3320 3724 c0 -9 5 -12 11 -8 7 4 10 1 7 -7 -3 -8 -11 -13 -17 -11
-6 1 -11 -2 -11 -7 0 -13 63 -6 68 8 2 6 -4 11 -12 11 -9 0 -19 7 -22 15 -8
20 -24 19 -24 -1z"/>
<path d="M2086 3698 c10 -14 21 -24 23 -22 3 3 -6 15 -18 27 l-24 22 19 -27z"/>
<path d="M2435 3710 c-3 -5 -1 -10 4 -10 6 0 11 5 11 10 0 6 -2 10 -4 10 -3 0
-8 -4 -11 -10z"/>
<path d="M4190 3709 c0 -5 5 -7 10 -4 6 3 10 8 10 11 0 2 -4 4 -10 4 -5 0 -10
-5 -10 -11z"/>
<path d="M4780 3710 c0 -5 5 -10 11 -10 5 0 7 5 4 10 -3 6 -8 10 -11 10 -2 0
-4 -4 -4 -10z"/>
<path d="M4309 3676 c13 -15 54 -18 45 -4 -3 5 -9 6 -14 3 -5 -3 -11 -1 -15 5
-3 5 -11 10 -17 10 -7 0 -6 -5 1 -14z"/>
<path d="M2195 3660 c10 -11 20 -20 23 -20 3 0 -3 9 -13 20 -10 11 -20 20 -23
20 -3 0 3 -9 13 -20z"/>
<path d="M4743 3673 c-15 -6 -17 -39 -3 -48 6 -4 7 1 3 11 -4 11 1 22 12 30
19 14 12 17 -12 7z"/>
<path d="M4265 3621 c0 -28 4 -51 9 -51 5 0 6 3 3 6 -4 4 5 20 19 37 14 16 22
32 18 36 -3 3 -11 -2 -17 -11 -10 -15 -12 -15 -22 8 -9 22 -10 19 -10 -25z"/>
<path d="M3984 3651 c4 -7 -2 -15 -16 -20 -15 -7 -17 -10 -7 -10 23 -1 44 25
28 35 -8 4 -9 3 -5 -5z"/>
<path d="M4203 3653 c-26 -5 -30 -18 -9 -26 8 -3 17 1 20 9 3 9 11 12 17 8 8
-4 9 -3 5 4 -4 7 -8 11 -9 11 -1 -1 -12 -4 -24 -6z"/>
<path d="M2793 3633 c0 -7 6 -12 14 -9 7 3 13 1 13 -3 0 -5 -6 -11 -12 -13 -9
-3 -8 -12 6 -32 14 -21 21 -25 29 -16 9 8 8 14 -6 21 -15 9 -16 13 -6 25 9 11
9 18 1 26 -17 17 -39 18 -39 1z"/>
<path d="M3260 3635 c-7 -8 -8 -15 -2 -15 5 0 15 7 22 15 7 8 8 15 2 15 -5 0
-15 -7 -22 -15z"/>
<path d="M2457 3624 c3 -9 -2 -14 -14 -14 -22 0 -63 -27 -63 -42 0 -6 11 -3
25 6 26 17 50 22 41 8 -3 -5 -8 -29 -11 -55 -6 -41 -4 -47 12 -47 14 -1 11 -4
-9 -16 -16 -8 -29 -19 -29 -24 -1 -6 -2 -15 -3 -21 0 -7 -10 -15 -21 -19 -18
-6 -17 -8 11 -23 17 -9 35 -13 38 -9 4 3 3 -5 -2 -18 -7 -18 -6 -29 4 -38 21
-19 17 -52 -8 -74 -16 -14 -19 -21 -10 -30 9 -9 12 -8 12 3 0 9 9 24 21 35 17
15 22 16 29 4 5 -8 6 -17 2 -20 -8 -6 -27 -36 -44 -68 -17 -34 -2 -38 26 -6
17 20 24 24 22 12 -1 -9 -9 -25 -19 -35 -21 -24 -7 -54 16 -34 13 10 17 9 26
-6 10 -17 10 -17 12 2 1 11 1 26 0 33 -1 7 5 15 13 18 8 3 12 12 9 20 -5 14 4
25 80 92 40 34 63 42 53 17 -3 -8 -1 -15 4 -15 10 0 9 -28 -2 -46 -4 -6 -1
-11 6 -11 14 0 15 45 2 84 -5 17 2 30 34 63 45 46 47 62 4 33 -27 -17 -28 -17
-21 0 4 10 3 16 -2 13 -5 -3 -11 1 -15 9 -3 8 -2 15 3 15 4 0 8 7 8 15 0 8 -4
15 -9 15 -5 0 -6 6 -2 13 4 7 3 8 -2 4 -12 -11 -13 -77 -1 -77 5 0 2 -11 -7
-25 -21 -32 -20 -41 2 -24 9 7 6 0 -8 -16 -14 -17 -26 -32 -27 -34 -2 -2 -6
-1 -9 2 -4 4 -1 15 7 24 13 17 13 17 -4 4 -10 -8 -16 -22 -14 -33 3 -10 1 -18
-4 -18 -5 0 -23 -16 -40 -35 -36 -39 -59 -45 -59 -14 0 11 -4 18 -9 15 -18
-12 -18 33 0 50 18 16 18 18 3 36 -10 10 -14 18 -10 18 3 0 -1 11 -10 25 -16
25 -15 47 7 102 7 15 13 35 15 43 7 41 15 76 20 90 3 8 2 11 -2 7 -4 -4 -14
-1 -23 7 -24 20 -61 27 -54 10z m5 -96 c-8 -8 -9 -4 -5 13 4 13 8 18 11 10 2
-7 -1 -18 -6 -23z m-32 -108 c0 -5 -2 -10 -4 -10 -3 0 -8 5 -11 10 -3 6 -1 10
4 10 6 0 11 -4 11 -10z m55 -300 c-3 -5 -11 -10 -16 -10 -6 0 -7 5 -4 10 3 6
11 10 16 10 6 0 7 -4 4 -10z"/>
<path d="M3133 3620 c1 -11 5 -20 9 -20 4 0 8 9 8 20 0 11 -4 20 -9 20 -6 0
-9 -9 -8 -20z"/>
<path d="M2906 3617 c3 -10 9 -15 12 -12 3 3 0 11 -7 18 -10 9 -11 8 -5 -6z"/>
<path d="M3930 3589 c0 -5 5 -7 10 -4 6 3 10 8 10 11 0 2 -4 4 -10 4 -5 0 -10
-5 -10 -11z"/>
<path d="M2949 3573 c-13 -16 -12 -17 4 -4 9 7 17 15 17 17 0 8 -8 3 -21 -13z"/>
<path d="M2675 3570 c-3 -5 -1 -10 4 -10 6 0 11 5 11 10 0 6 -2 10 -4 10 -3 0
-8 -4 -11 -10z"/>
<path d="M3890 3570 c0 -5 5 -10 11 -10 5 0 7 5 4 10 -3 6 -8 10 -11 10 -2 0
-4 -4 -4 -10z"/>
<path d="M2160 3565 c0 -2 6 -8 13 -14 10 -8 14 -7 14 2 0 8 -6 14 -14 14 -7
0 -13 -1 -13 -2z"/>
<path d="M2235 3500 c21 -22 43 -40 49 -40 5 0 -1 8 -12 19 -22 18 -31 37 -12
26 6 -3 7 1 3 10 -5 13 -8 14 -15 3 -7 -10 -10 -10 -19 5 -5 9 -15 17 -22 17
-6 0 7 -18 28 -40z"/>
<path d="M5447 3520 c3 -10 12 -21 20 -25 12 -4 13 -3 5 8 -7 8 -9 16 -6 19 2
3 -2 8 -9 11 -11 4 -13 0 -10 -13z"/>
<path d="M2363 3480 c1 -11 5 -20 9 -20 11 0 10 28 -1 35 -6 3 -9 -4 -8 -15z"/>
<path d="M2670 3492 c0 -5 7 -9 15 -9 8 0 15 4 15 9 0 4 -7 8 -15 8 -8 0 -15
-4 -15 -8z"/>
<path d="M3893 3485 c0 -8 4 -12 9 -9 5 3 6 10 3 15 -9 13 -12 11 -12 -6z"/>
<path d="M3700 3480 c-8 -5 -18 -6 -22 -4 -4 3 -8 0 -8 -5 0 -14 37 -14 45 0
10 15 2 20 -15 9z"/>
<path d="M4190 3470 c0 -5 7 -7 15 -4 8 4 15 8 15 10 0 2 -7 4 -15 4 -8 0 -15
-4 -15 -10z"/>
<path d="M2359 3433 c-13 -16 -12 -17 4 -4 9 7 17 15 17 17 0 8 -8 3 -21 -13z"/>
<path d="M2749 3433 c-13 -16 -12 -17 4 -4 16 13 21 21 13 21 -2 0 -10 -8 -17
-17z"/>
<path d="M3427 3430 c3 -11 9 -17 14 -15 10 7 1 35 -11 35 -5 0 -6 -9 -3 -20z"/>
<path d="M4690 3424 c0 -8 5 -12 10 -9 6 3 10 10 10 16 0 5 -4 9 -10 9 -5 0
-10 -7 -10 -16z"/>
<path d="M2776 3408 c3 -5 10 -6 15 -3 13 9 11 12 -6 12 -8 0 -12 -4 -9 -9z"/>
<path d="M3860 3417 c0 -2 14 -16 31 -33 18 -17 28 -22 24 -12 -6 14 -55 55
-55 45z"/>
<path d="M4820 3399 c0 -11 11 -23 44 -49 18 -14 19 -14 8 5 -14 26 -52 58
-52 44z"/>
<path d="M2375 3362 c4 -4 12 -7 18 -7 7 -1 11 -7 9 -14 -1 -7 2 -9 9 -6 13 9
-3 28 -27 31 -9 1 -13 -1 -9 -4z"/>
<path d="M3292 3328 c-5 -7 -6 -22 -2 -32 6 -17 8 -16 18 12 11 32 3 43 -16
20z"/>
<path d="M4901 3337 c2 -1 13 -9 24 -17 19 -14 19 -14 6 3 -7 9 -18 17 -24 17
-6 0 -8 -1 -6 -3z"/>
<path d="M4945 3266 c39 -36 74 -66 79 -66 6 0 0 9 -12 21 -12 11 -20 25 -16
30 3 5 2 8 -3 7 -15 -4 -54 23 -47 34 4 6 3 8 -4 4 -6 -3 -13 -2 -17 4 -3 5
-16 15 -28 21 -12 6 10 -19 48 -55z"/>
<path d="M2415 3291 c-3 -5 0 -13 6 -17 7 -4 9 -3 5 4 -3 5 0 13 6 15 9 4 10
6 1 6 -6 1 -14 -3 -18 -8z"/>
<path d="M4630 3290 c-12 -7 -10 -9 8 -7 12 0 22 5 22 9 0 11 -12 10 -30 -2z"/>
<path d="M3238 3240 c-9 -16 -13 -32 -8 -35 5 -3 11 4 15 15 3 11 11 20 16 20
5 0 9 7 9 15 0 24 -14 17 -32 -15z"/>
<path d="M3880 3250 c-9 -6 -10 -10 -3 -10 6 0 15 5 18 10 8 12 4 12 -15 0z"/>
<path d="M4060 3249 c0 -5 5 -7 10 -4 6 3 10 8 10 11 0 2 -4 4 -10 4 -5 0 -10
-5 -10 -11z"/>
<path d="M3675 3239 c-4 -6 -4 -13 0 -17 4 -4 10 -1 12 6 3 6 10 9 15 6 7 -4
8 -2 4 4 -9 15 -23 15 -31 1z"/>
<path d="M3895 3230 c-3 -5 -1 -10 4 -10 6 0 11 5 11 10 0 6 -2 10 -4 10 -3 0
-8 -4 -11 -10z"/>
<path d="M3341 3214 c0 -11 3 -14 6 -6 3 7 2 16 -1 19 -3 4 -6 -2 -5 -13z"/>
<path d="M4051 3213 c16 -27 26 -29 26 -8 0 8 -3 13 -5 10 -3 -3 -12 1 -20 8
-13 11 -14 9 -1 -10z"/>
<path d="M4575 3219 c-4 -6 -5 -12 -2 -15 2 -3 7 2 10 11 7 17 1 20 -8 4z"/>
<path d="M3310 3200 c0 -19 3 -21 12 -12 9 9 9 15 0 24 -9 9 -12 7 -12 -12z"/>
<path d="M3320 3170 c-24 -22 -48 -40 -52 -40 -4 0 -8 -6 -8 -14 0 -8 -7 -16
-15 -20 -9 -3 -12 -12 -9 -23 4 -13 0 -12 -15 6 -21 23 -22 23 -41 6 -20 -18
-28 -55 -11 -55 5 0 12 -10 15 -22 6 -21 7 -22 20 -6 15 20 28 14 19 -10 -4
-9 10 -1 30 17 19 18 35 41 34 51 -1 10 -5 16 -9 14 -5 -3 -6 -9 -3 -14 3 -5
1 -11 -5 -15 -6 -4 -10 5 -10 19 0 15 8 31 19 38 10 6 17 18 14 25 -3 7 1 14
8 15 8 0 19 2 24 2 20 3 35 18 29 28 -4 7 -2 8 5 4 12 -8 41 10 41 25 0 21
-39 6 -80 -31z"/>
<path d="M3668 3203 c6 -2 18 -2 25 0 6 3 1 5 -13 5 -14 0 -19 -2 -12 -5z"/>
<path d="M4090 3195 c0 -8 -5 -15 -10 -15 -6 0 0 -11 12 -24 29 -29 38 -24 12
6 l-19 23 23 -19 c12 -11 22 -27 22 -38 0 -10 4 -18 9 -18 17 0 41 12 41 21 0
4 -7 6 -15 3 -9 -4 -15 0 -15 10 0 9 -4 16 -10 16 -5 0 -10 6 -10 13 0 7 -9
18 -20 25 -17 10 -20 10 -20 -3z"/>
<path d="M3837 3159 c7 -7 15 -10 18 -7 3 3 -2 9 -12 12 -14 6 -15 5 -6 -5z"/>
<path d="M3152 3143 c-7 -12 -12 -30 -12 -40 0 -13 5 -9 15 11 9 16 14 34 12
40 -2 6 -9 1 -15 -11z"/>
<path d="M2556 3126 c3 -8 0 -25 -7 -38 -15 -28 -19 -107 -5 -105 6 1 12 -9
14 -23 2 -14 8 -29 12 -34 9 -9 2 -66 -10 -79 -13 -14 1 -55 21 -60 10 -3 21
-1 25 4 3 5 22 -2 42 -16 20 -14 40 -25 45 -25 11 0 -3 43 -17 52 -6 4 -7 10
-3 14 8 9 36 -25 37 -44 0 -7 4 -11 9 -7 5 3 12 1 16 -5 12 -19 24 -10 19 16
-3 16 -1 23 6 19 16 -10 12 11 -5 25 -13 11 -14 10 -9 -5 5 -13 3 -16 -7 -13
-15 5 -21 58 -6 58 4 0 5 5 2 10 -11 18 -38 12 -31 -7 11 -28 -32 15 -62 62
-20 30 -27 36 -30 23 -3 -18 -23 -24 -35 -12 -3 4 -2 14 3 24 5 10 6 20 3 24
-4 4 -8 16 -10 29 -4 21 -3 21 11 2 15 -20 15 -19 9 3 -3 12 -12 22 -19 22
-17 0 -18 14 -3 41 11 21 4 59 -11 59 -5 0 -7 -6 -4 -14z m74 -211 c0 -9 -6
-18 -13 -21 -8 -3 -11 -17 -9 -39 5 -44 -3 -66 -22 -59 -13 5 -13 11 -1 44 7
21 11 40 8 43 -7 8 16 47 27 47 6 0 10 -7 10 -15z m24 -51 c9 -22 -3 -32 -14
-14 -12 19 -12 30 -1 30 5 0 12 -7 15 -16z"/>
<path d="M5135 3100 c3 -5 8 -10 11 -10 2 0 4 5 4 10 0 6 -5 10 -11 10 -5 0
-7 -4 -4 -10z"/>
<path d="M3324 3087 c17 -12 17 -15 4 -28 -16 -14 -14 -85 3 -103 4 -5 6 0 3
10 -3 10 4 37 15 58 12 22 19 42 16 44 -3 3 -5 0 -5 -6 0 -7 -5 -12 -11 -12
-5 0 -7 5 -4 10 8 12 -12 40 -28 40 -6 0 -3 -6 7 -13z"/>
<path d="M3840 3090 c-9 -6 -10 -10 -3 -10 6 0 15 5 18 10 8 12 4 12 -15 0z"/>
<path d="M3895 3091 c-3 -5 -2 -12 3 -15 5 -3 9 1 9 9 0 17 -3 19 -12 6z"/>
<path d="M3120 3076 c0 -2 7 -7 16 -10 8 -3 12 -2 9 4 -6 10 -25 14 -25 6z"/>
<path d="M3619 3043 c-13 -16 -12 -17 4 -4 16 13 21 21 13 21 -2 0 -10 -8 -17
-17z"/>
<path d="M2335 3038 c-11 -6 -22 -14 -25 -17 -5 -6 -92 -77 -118 -97 -12 -9
-13 -12 -2 -19 8 -5 11 -4 7 1 -3 6 6 15 21 22 25 12 153 122 142 121 -3 0
-14 -5 -25 -11z"/>
<path d="M3413 3035 c0 -8 4 -15 9 -15 4 0 8 7 8 15 0 8 -4 15 -8 15 -5 0 -9
-7 -9 -15z"/>
<path d="M5210 3046 c0 -1 36 -33 80 -70 94 -78 109 -74 18 6 -54 46 -98 76
-98 64z"/>
<path d="M3265 3010 c-19 -21 -17 -30 7 -34 7 -1 20 -6 28 -11 13 -8 13 -6 1
8 -7 9 -11 23 -8 32 9 23 -9 26 -28 5z"/>
<path d="M3355 3020 c-3 -6 1 -7 9 -4 18 7 21 14 7 14 -6 0 -13 -4 -16 -10z"/>
<path d="M3146 2985 c-19 -28 -20 -35 -6 -35 6 0 10 7 10 16 0 8 4 13 9 9 6
-3 9 4 8 15 -2 25 -1 25 -21 -5z"/>
<path d="M3361 2996 c-9 -10 -8 -16 4 -26 12 -10 15 -10 15 0 0 9 4 9 17 -1
15 -13 15 -12 5 8 -16 30 -28 35 -41 19z"/>
<path d="M3430 2984 c0 -8 5 -12 10 -9 6 4 8 11 5 16 -9 14 -15 11 -15 -7z"/>
<path d="M3651 2997 c2 -1 12 -9 22 -16 15 -12 17 -12 11 3 -3 9 -13 16 -22
16 -8 0 -13 -1 -11 -3z"/>
<path d="M3190 2969 c0 -5 5 -7 10 -4 6 3 10 8 10 11 0 2 -4 4 -10 4 -5 0 -10
-5 -10 -11z"/>
<path d="M4270 2965 c10 -13 9 -15 -9 -15 -12 0 -19 -4 -16 -10 6 -10 55 -14
55 -4 0 13 -22 44 -32 44 -7 0 -6 -5 2 -15z"/>
<path d="M4300 2964 c1 -16 71 -63 86 -57 11 4 9 11 -9 32 -12 16 -24 24 -25
19 -2 -5 2 -15 8 -23 21 -25 -2 -16 -32 12 -15 15 -28 23 -28 17z"/>
<path d="M3677 2953 c-4 -3 -7 -11 -7 -17 0 -6 4 -5 9 3 7 11 13 9 30 -8 11
-11 21 -17 21 -13 0 9 -33 42 -42 42 -2 0 -8 -3 -11 -7z"/>
<path d="M3382 2928 c-7 -7 -12 -16 -12 -20 0 -15 15 -8 28 12 13 22 3 27 -16
8z"/>
<path d="M2540 2910 c-9 -6 -10 -10 -3 -10 6 0 15 5 18 10 8 12 4 12 -15 0z"/>
<path d="M3648 2888 c13 -26 17 -29 20 -15 2 10 -2 24 -8 32 -22 26 -29 16
-12 -17z"/>
<path d="M3774 2889 c-3 -6 -1 -15 5 -20 6 -5 9 -6 6 -3 -3 4 0 13 6 21 8 9 8
13 1 13 -6 0 -14 -5 -18 -11z"/>
<path d="M2915 2882 c-6 -6 43 -32 60 -32 8 0 20 -6 27 -14 12 -11 16 -10 25
10 6 13 7 24 2 24 -5 0 -9 -5 -9 -12 0 -9 -3 -9 -11 -1 -6 6 -18 9 -27 6 -11
-5 -13 -3 -7 8 8 12 6 12 -8 0 -15 -12 -21 -9 -19 10 1 7 -26 8 -33 1z"/>
<path d="M3567 2884 c-10 -11 3 -24 24 -24 23 0 25 15 3 24 -19 7 -19 7 -27 0z"/>
<path d="M4410 2881 c0 -6 5 -21 12 -35 9 -20 14 -23 25 -15 19 16 16 24 -12
43 -14 9 -25 12 -25 7z"/>
<path d="M3896 2871 c-3 -5 1 -11 9 -15 8 -3 15 -1 15 4 0 13 -18 22 -24 11z"/>
<path d="M5005 2870 c-3 -6 1 -7 9 -4 18 7 21 14 7 14 -6 0 -13 -4 -16 -10z"/>
<path d="M3620 2851 c0 -25 6 -27 13 -6 4 8 2 17 -3 20 -6 4 -10 -3 -10 -14z"/>
<path d="M3675 2850 c-3 -5 -1 -10 4 -10 6 0 11 5 11 10 0 6 -2 10 -4 10 -3 0
-8 -4 -11 -10z"/>
<path d="M3870 2845 c7 -9 15 -13 17 -11 7 7 -7 26 -19 26 -6 0 -6 -6 2 -15z"/>
<path d="M3356 2842 c-3 -5 1 -9 9 -9 8 0 12 4 9 9 -3 4 -7 8 -9 8 -2 0 -6 -4
-9 -8z"/>
<path d="M3708 2843 c6 -2 18 -2 25 0 6 3 1 5 -13 5 -14 0 -19 -2 -12 -5z"/>
<path d="M2970 2830 c0 -5 5 -10 11 -10 5 0 7 5 4 10 -3 6 -8 10 -11 10 -2 0
-4 -4 -4 -10z"/>
<path d="M4456 2825 c-4 -10 3 -20 19 -27 14 -6 25 -16 25 -21 0 -6 3 -8 6 -5
3 4 0 17 -7 30 -7 12 -12 26 -11 31 4 14 -26 7 -32 -8z"/>
<path d="M3030 2821 c0 -5 5 -13 10 -16 6 -3 10 -2 10 4 0 5 -4 13 -10 16 -5
3 -10 2 -10 -4z"/>
<path d="M3056 2791 c-3 -4 3 -16 14 -26 22 -20 28 -44 7 -26 -8 6 -17 8 -20
4 -4 -3 -7 1 -7 9 0 18 -26 43 -33 31 -3 -4 13 -25 34 -47 21 -21 39 -32 39
-26 0 7 8 19 18 27 9 7 13 12 7 11 -13 -4 -55 38 -47 46 3 3 3 6 -1 6 -3 0 -8
-4 -11 -9z"/>
<path d="M3891 2764 c0 -11 3 -14 6 -6 3 7 2 16 -1 19 -3 4 -6 -2 -5 -13z"/>
<path d="M3114 2714 c-18 -14 -18 -15 5 -3 22 10 23 9 17 -7 -6 -15 -5 -17 5
-6 21 20 -3 35 -27 16z"/>
<path d="M3009 2693 l-24 -28 28 24 c25 23 32 31 24 31 -2 0 -14 -12 -28 -27z"/>
<path d="M4070 2711 c0 -6 4 -12 8 -15 5 -3 9 1 9 9 0 8 -4 15 -9 15 -4 0 -8
-4 -8 -9z"/>
<path d="M4434 2712 c4 -7 1 -14 -8 -18 -8 -3 -17 -13 -20 -21 -5 -13 -4 -14
9 -3 19 16 20 2 0 -20 -13 -14 -12 -16 5 -17 29 -2 44 22 25 40 -8 9 -11 18
-6 21 5 3 11 -1 15 -9 3 -8 11 -15 17 -15 7 0 9 3 6 7 -4 3 1 15 10 26 17 19
17 19 -4 7 -18 -12 -24 -12 -39 1 -11 9 -15 9 -10 1z"/>
<path d="M3130 2666 c7 -7 14 -6 21 1 9 9 7 12 -9 10 -14 -1 -18 -5 -12 -11z"/>
<path d="M6274 2664 c-18 -14 -18 -15 4 -4 12 6 22 13 22 15 0 8 -5 6 -26 -11z"/>
<path d="M5106 2651 c-4 -5 -2 -12 3 -15 5 -4 12 -2 15 3 4 5 2 12 -3 15 -5 4
-12 2 -15 -3z"/>
<path d="M3610 2641 c0 -5 5 -13 10 -16 6 -3 10 -2 10 4 0 5 -4 13 -10 16 -5
3 -10 2 -10 -4z"/>
<path d="M4230 2631 c0 -5 5 -13 10 -16 6 -3 10 -2 10 4 0 5 -4 13 -10 16 -5
3 -10 2 -10 -4z"/>
<path d="M4390 2605 c-20 -24 -6 -28 15 -5 10 11 13 20 8 20 -6 0 -16 -7 -23
-15z"/>
<path d="M3633 2580 c1 -17 7 -30 14 -30 6 0 14 -6 16 -12 4 -9 6 -9 6 1 1 11
5 10 16 -5 14 -18 14 -18 8 4 -3 12 -9 22 -14 22 -5 0 -9 6 -9 13 0 7 -9 18
-20 24 -17 12 -19 10 -17 -17z"/>
<path d="M4245 2570 c3 -5 8 -10 11 -10 2 0 4 5 4 10 0 6 -5 10 -11 10 -5 0
-7 -4 -4 -10z"/>
<path d="M2930 2546 c0 -8 5 -18 10 -21 6 -3 10 1 10 9 0 8 -4 18 -10 21 -5 3
-10 -1 -10 -9z"/>
<path d="M2894 2512 c17 -18 37 -31 45 -30 9 2 16 -2 16 -9 0 -7 6 -18 14 -25
12 -11 12 -10 5 2 -9 15 -10 20 -13 41 0 6 -10 8 -20 4 -13 -4 -24 1 -33 13
-7 10 -20 22 -28 27 -8 4 -2 -6 14 -23z"/>
<path d="M3445 2500 c-8 -13 3 -30 18 -29 9 0 9 2 0 5 -7 3 -9 12 -6 20 6 16
-3 19 -12 4z"/>
<path d="M3722 2455 c15 -16 20 -17 30 -6 11 11 10 13 0 7 -7 -4 -21 -2 -30 5
-15 12 -15 11 0 -6z"/>
<path d="M4890 2463 c0 -13 39 -61 40 -49 0 5 9 -1 20 -14 11 -13 23 -20 27
-16 4 3 -4 14 -18 23 -13 10 -34 28 -46 42 -13 13 -23 19 -23 14z"/>
<path d="M3850 2435 c-10 -12 -10 -15 2 -15 8 0 15 7 15 15 0 8 -1 15 -2 15
-2 0 -8 -7 -15 -15z"/>
<path d="M3364 2408 l-19 -23 23 19 c21 18 27 26 19 26 -2 0 -12 -10 -23 -22z"/>
<path d="M3734 2409 c0 -24 9 -24 27 -1 7 9 9 14 5 10 -5 -4 -14 -4 -20 2 -8
6 -12 3 -12 -11z"/>
<path d="M4041 2421 c-8 -5 -9 -11 -3 -15 5 -3 12 1 16 9 6 17 6 18 -13 6z"/>
<path d="M4353 2417 c0 -8 6 -14 14 -14 9 0 10 4 2 14 -6 7 -12 13 -14 13 -1
0 -2 -6 -2 -13z"/>
<path d="M3020 2416 c0 -2 8 -10 18 -17 15 -13 16 -12 3 4 -13 16 -21 21 -21
13z"/>
<path d="M3244 2408 c-4 -6 -3 -8 3 -5 6 4 16 0 22 -7 9 -11 9 -16 0 -22 -8
-5 -9 -3 -4 6 5 9 4 11 -3 6 -14 -9 -16 -36 -3 -36 11 0 41 39 41 53 0 4 -4 6
-9 2 -5 -3 -12 -1 -16 5 -8 13 -22 13 -31 -2z"/>
<path d="M4246 2407 c3 -10 9 -15 12 -12 3 3 0 11 -7 18 -10 9 -11 8 -5 -6z"/>
<path d="M2633 2381 c-2 -18 14 -30 45 -37 6 -1 2 11 -10 26 -27 34 -33 36
-35 11z m28 -18 c13 -16 12 -17 -3 -4 -17 13 -22 21 -14 21 2 0 10 -8 17 -17z"/>
<path d="M2670 2391 c0 -6 4 -13 10 -16 6 -3 7 1 4 9 -7 18 -14 21 -14 7z"/>
<path d="M4477 2393 c-4 -3 -7 -11 -7 -17 0 -6 5 -5 12 2 6 6 9 14 7 17 -3 3
-9 2 -12 -2z"/>
<path d="M4830 2390 c-13 -8 -12 -10 3 -10 9 0 17 5 17 10 0 12 -1 12 -20 0z"/>
<path d="M3550 2376 c0 -2 7 -7 16 -10 8 -3 12 -2 9 4 -6 10 -25 14 -25 6z"/>
<path d="M3733 2365 c-15 -17 -17 -41 -3 -50 6 -3 7 1 4 10 -4 9 2 25 11 35
10 11 14 20 9 20 -5 -1 -15 -7 -21 -15z"/>
<path d="M3772 2359 c-17 -18 -20 -59 -5 -59 3 0 3 9 0 20 -3 11 -1 23 4 26 5
3 9 -2 9 -10 0 -9 4 -15 9 -13 5 1 9 -2 9 -8 0 -5 -4 -9 -8 -8 -4 1 -5 -8 -2
-20 5 -18 7 -19 10 -4 4 20 7 21 35 6 l22 -12 -20 22 -19 22 29 -6 c26 -5 27
-5 11 6 -15 9 -16 13 -5 21 11 7 9 8 -5 4 -10 -4 -27 -4 -38 0 -15 4 -17 9 -7
20 19 23 -7 17 -29 -7z"/>
<path d="M3830 2376 c0 -2 7 -6 15 -10 8 -3 15 -1 15 4 0 6 -7 10 -15 10 -8 0
-15 -2 -15 -4z"/>
<path d="M4795 2360 c-3 -5 -1 -10 4 -10 6 0 11 5 11 10 0 6 -2 10 -4 10 -3 0
-8 -4 -11 -10z"/>
<path d="M4200 2345 c-8 -9 -4 -11 16 -7 21 4 25 2 19 -9 -5 -8 -4 -11 0 -7 5
5 23 -8 41 -28 18 -21 37 -34 43 -29 8 4 -5 21 -35 48 -51 45 -68 52 -84 32z"/>
<path d="M2715 2336 c11 -8 24 -12 28 -9 11 7 -12 23 -32 23 -11 0 -9 -4 4
-14z"/>
<path d="M4762 2344 c4 -3 -14 -24 -39 -45 -44 -36 -82 -82 -53 -64 7 4 16 2
20 -5 5 -8 9 -7 13 5 4 9 3 13 -3 10 -6 -3 -10 -1 -10 4 0 6 8 11 18 11 10 0
27 7 38 16 18 14 18 15 -6 4 -21 -9 -19 -5 12 24 30 28 33 36 20 41 -9 3 -13
3 -10 -1z"/>
<path d="M3390 2331 c0 -6 4 -13 10 -16 6 -3 7 1 4 9 -7 18 -14 21 -14 7z"/>
<path d="M4050 2330 c0 -5 5 -10 11 -10 5 0 7 5 4 10 -3 6 -8 10 -11 10 -2 0
-4 -4 -4 -10z"/>
<path d="M3174 2285 c-16 -12 -17 -14 -3 -15 9 0 19 7 23 15 7 19 5 19 -20 0z"/>
<path d="M3640 2280 c-6 -11 -8 -20 -6 -20 3 0 10 9 16 20 6 11 8 20 6 20 -3
0 -10 -9 -16 -20z"/>
<path d="M3730 2295 c0 -5 5 -17 10 -25 5 -8 10 -10 10 -5 0 6 -5 17 -10 25
-5 8 -10 11 -10 5z"/>
<path d="M3985 2290 c-2 -3 5 -6 15 -7 11 -1 22 2 24 5 3 4 -4 8 -15 8 -11 0
-22 -3 -24 -6z"/>
<path d="M1620 2260 c19 -17 52 -41 73 -52 20 -12 37 -29 38 -37 0 -11 2 -12
6 -3 2 6 9 12 15 12 6 0 8 -6 5 -14 -6 -15 18 -31 42 -27 7 1 10 -2 7 -7 -3
-6 1 -13 10 -16 8 -3 12 -2 9 4 -10 16 5 12 41 -11 19 -11 31 -26 28 -31 -4
-7 -2 -8 4 -4 8 5 9 12 1 24 -17 27 -88 74 -101 66 -6 -4 -8 -3 -4 4 7 12 -11
26 -36 28 -10 1 -22 2 -27 3 -5 0 -40 22 -77 47 -51 33 -60 37 -34 14z"/>
<path d="M3920 2260 c-6 -11 -7 -20 -2 -20 6 0 12 9 15 20 3 11 3 20 1 20 -2
0 -8 -9 -14 -20z"/>
<path d="M3761 2265 c0 -5 9 -21 20 -35 15 -18 19 -20 15 -7 -3 10 -6 23 -6
28 0 6 -4 8 -9 5 -5 -4 -12 0 -14 6 -3 7 -6 9 -6 3z"/>
<path d="M4336 2257 c-16 -12 -11 -19 53 -79 38 -36 72 -63 76 -60 3 3 5 1 5
-4 0 -5 14 -18 31 -28 31 -18 31 -18 20 3 -7 11 -9 21 -6 21 4 0 -7 11 -23 25
-32 27 -48 33 -36 13 5 -7 3 -8 -5 -4 -7 5 -10 15 -7 23 3 8 2 12 -3 9 -15 -9
-67 22 -81 49 -12 23 -12 28 0 35 8 6 10 10 4 10 -5 0 -18 -6 -28 -13z"/>
<path d="M3812 2244 c10 -10 20 -16 22 -13 3 3 -5 11 -17 18 -21 13 -21 12 -5
-5z"/>
<path d="M3495 2219 c-4 -6 -5 -12 -2 -15 2 -3 7 2 10 11 7 17 1 20 -8 4z"/>
<path d="M3750 2222 c0 -4 5 -13 12 -20 7 -7 8 -12 3 -12 -4 0 0 -9 9 -19 17
-18 17 -22 2 -51 -13 -27 -13 -30 -1 -20 10 8 15 9 15 2 0 -6 -5 -14 -10 -17
-6 -4 -8 -11 -4 -16 3 -6 7 -25 9 -42 2 -18 5 -44 8 -60 2 -15 0 -30 -5 -33
-4 -3 -6 -10 -3 -15 4 -5 2 -9 -3 -9 -13 0 -3 -38 16 -68 8 -12 12 -25 9 -29
-4 -3 -10 5 -15 17 -6 16 -11 20 -16 11 -4 -6 -3 -18 4 -26 7 -8 7 -15 1 -19
-5 -4 -14 2 -20 11 -6 10 -10 14 -11 8 0 -21 17 -34 37 -31 16 3 23 -2 27 -20
4 -13 11 -24 17 -24 6 0 8 -4 4 -9 -3 -5 -1 -12 5 -16 15 -9 12 13 -5 39 -12
18 -17 58 -19 158 -2 73 -6 143 -9 156 -4 12 -1 22 5 22 6 0 3 9 -7 20 -15 16
-15 22 -5 35 7 9 8 15 2 15 -16 0 -8 29 14 45 10 8 14 15 9 15 -6 0 -16 -5
-21 -10 -8 -8 -15 -6 -24 5 -13 16 -30 20 -30 7z"/>
<path d="M3891 2213 c7 -12 15 -20 18 -17 3 2 -3 12 -13 22 -17 16 -18 16 -5
-5z"/>
<path d="M2855 2210 c3 -5 8 -10 11 -10 2 0 4 5 4 10 0 6 -5 10 -11 10 -5 0
-7 -4 -4 -10z"/>
<path d="M3245 2210 c-3 -6 1 -7 9 -4 18 7 21 14 7 14 -6 0 -13 -4 -16 -10z"/>
<path d="M5790 2190 c0 -5 5 -10 11 -10 5 0 7 5 4 10 -3 6 -8 10 -11 10 -2 0
-4 -4 -4 -10z"/>
<path d="M2855 2170 c10 -11 20 -20 23 -20 3 0 -3 9 -13 20 -10 11 -20 20 -23
20 -3 0 3 -9 13 -20z"/>
<path d="M4060 2180 c0 -6 7 -10 15 -10 8 0 15 2 15 4 0 2 -7 6 -15 10 -8 3
-15 1 -15 -4z"/>
<path d="M4575 2176 c-29 -13 -62 -43 -54 -50 11 -11 42 -9 46 2 3 6 -4 12
-14 13 -13 0 -14 2 -4 6 8 3 20 -2 28 -13 12 -17 13 -17 13 2 0 11 5 25 12 32
18 18 6 22 -27 8z"/>
<path d="M1835 2170 c-3 -5 -1 -10 4 -10 6 0 11 5 11 10 0 6 -2 10 -4 10 -3 0
-8 -4 -11 -10z"/>
<path d="M2895 2170 c-3 -5 -1 -10 4 -10 6 0 11 5 11 10 0 6 -2 10 -4 10 -3 0
-8 -4 -11 -10z"/>
<path d="M3740 2173 c1 -18 19 -35 29 -28 9 5 9 10 0 21 -12 15 -29 19 -29 7z"/>
<path d="M3860 2165 c-7 -9 -11 -17 -9 -20 3 -2 10 5 17 15 14 24 10 26 -8 5z"/>
<path d="M3895 2169 c-4 -6 -5 -12 -2 -15 2 -3 7 2 10 11 7 17 1 20 -8 4z"/>
<path d="M3970 2176 c0 -2 8 -10 18 -17 15 -13 16 -12 3 4 -13 16 -21 21 -21
13z"/>
<path d="M4068 2138 c-10 -10 -14 -18 -9 -18 10 0 36 29 30 34 -2 1 -12 -6
-21 -16z"/>
<path d="M4180 2150 c0 -5 5 -10 11 -10 5 0 7 5 4 10 -3 6 -8 10 -11 10 -2 0
-4 -4 -4 -10z"/>
<path d="M5723 2143 c0 -9 4 -10 14 -2 7 6 13 12 13 14 0 1 -6 2 -13 2 -8 0
-14 -6 -14 -14z"/>
<path d="M2895 2130 c-3 -5 -1 -10 4 -10 6 0 11 5 11 10 0 6 -2 10 -4 10 -3 0
-8 -4 -11 -10z"/>
<path d="M3880 2130 c0 -5 5 -10 11 -10 5 0 7 5 4 10 -3 6 -8 10 -11 10 -2 0
-4 -4 -4 -10z"/>
<path d="M4257 2133 c-12 -12 -7 -19 15 -20 13 -1 18 1 13 5 -6 4 -13 11 -16
15 -3 4 -9 4 -12 0z"/>
<path d="M4183 2118 c-4 -7 -8 -17 -8 -23 -1 -5 -7 -9 -15 -7 -10 3 -9 -3 4
-17 11 -12 20 -21 20 -21 1 0 1 12 0 28 -1 15 3 33 9 40 5 6 7 12 4 12 -3 0
-9 -6 -14 -12z"/>
<path d="M5691 2111 c-8 -10 -20 -17 -28 -14 -7 3 -13 0 -13 -6 0 -6 -6 -11
-14 -11 -8 0 -18 -5 -22 -12 -5 -7 -3 -8 6 -3 8 5 11 4 6 -3 -4 -6 -13 -9 -22
-5 -8 3 -23 -2 -33 -11 -10 -9 -21 -13 -24 -10 -4 4 -9 0 -13 -9 -3 -9 -12
-13 -19 -11 -7 3 -16 0 -20 -5 -3 -6 -10 -9 -15 -6 -4 3 -13 -2 -20 -10 -7 -8
-18 -15 -24 -15 -6 0 -4 5 4 10 8 5 10 10 4 10 -12 0 -40 -29 -37 -39 1 -3 -1
-8 -4 -11 -4 -3 -3 1 1 8 4 6 2 12 -3 12 -6 0 -11 -4 -11 -9 0 -11 -87 -61
-107 -61 -8 0 -11 5 -8 13 4 6 1 5 -7 -4 -7 -9 -23 -15 -35 -14 -12 1 -20 -2
-17 -7 3 -4 -8 -13 -23 -20 -15 -7 -35 -20 -44 -30 -9 -10 -19 -14 -23 -11 -4
4 -4 0 -1 -9 4 -11 0 -18 -14 -23 -12 -3 -18 -11 -15 -17 5 -7 2 -8 -5 -4 -7
5 -17 1 -24 -8 -7 -9 -38 -25 -70 -36 -32 -12 -76 -32 -97 -45 -21 -13 -40
-21 -43 -18 -3 3 -19 -1 -35 -9 -15 -8 -36 -14 -45 -12 -9 1 -17 -1 -17 -6 0
-7 -56 -23 -85 -24 -5 -1 -14 -6 -20 -12 -5 -7 -27 -17 -47 -24 -21 -6 -38
-16 -38 -22 0 -6 6 -5 15 2 9 7 18 10 21 7 3 -3 -8 -13 -25 -22 -42 -21 -39
-26 12 -21 60 7 149 35 142 46 -3 5 -13 7 -23 4 -9 -3 1 4 22 15 28 15 43 18
52 11 8 -8 22 -5 48 9 31 18 34 18 30 3 -5 -15 -4 -15 6 1 6 9 8 22 4 29 -5 8
-2 9 10 5 9 -4 15 -3 11 2 -3 5 17 17 45 26 27 9 50 21 50 26 0 6 5 7 10 4 6
-3 10 -1 10 4 0 6 9 11 20 11 11 0 20 5 20 11 0 5 4 8 9 4 5 -3 13 0 16 5 8
13 48 30 85 37 14 2 27 8 28 14 2 5 7 9 12 9 11 0 143 61 150 69 3 3 23 15 45
26 22 11 43 24 47 30 5 6 8 6 8 -1 0 -6 -10 -19 -22 -29 -22 -16 -22 -16 4 -1
15 9 37 16 48 16 11 0 23 7 26 15 4 8 10 13 14 10 4 -3 19 5 34 16 14 11 26
17 26 12 0 -4 4 -3 8 2 4 6 21 17 37 26 17 9 29 21 28 27 -2 7 4 9 15 5 9 -3
14 -3 10 2 -4 4 0 14 10 21 21 17 36 18 26 2 -4 -7 -3 -8 5 -4 6 4 9 12 6 17
-4 5 -1 9 6 9 8 0 9 3 0 13 -6 8 -7 18 -3 22 4 5 2 5 -5 1 -6 -3 -13 1 -15 9
-2 13 -5 13 -17 -4z m-81 -98 c0 -11 -83 -62 -106 -66 -10 -1 -26 -7 -34 -12
-13 -7 -13 -6 -2 7 7 9 24 19 37 22 14 4 41 17 61 31 40 27 44 29 44 18z
m-160 -47 c0 -3 -4 -8 -10 -11 -5 -3 -10 -1 -10 4 0 6 5 11 10 11 6 0 10 -2
10 -4z m-480 -266 c0 -5 -8 -10 -17 -10 -15 0 -16 2 -3 10 19 12 20 12 20 0z
m-125 -70 c3 -5 1 -10 -4 -10 -6 0 -11 5 -11 10 0 6 2 10 4 10 3 0 8 -4 11
-10z m-30 -20 c-3 -5 -11 -10 -16 -10 -6 0 -7 5 -4 10 3 6 11 10 16 10 6 0 7
-4 4 -10z"/>
<path d="M3330 2110 c0 -5 5 -10 11 -10 5 0 7 5 4 10 -3 6 -8 10 -11 10 -2 0
-4 -4 -4 -10z"/>
<path d="M4205 2110 c-3 -6 1 -7 9 -4 18 7 21 14 7 14 -6 0 -13 -4 -16 -10z"/>
<path d="M4527 2099 c7 -7 15 -10 18 -7 3 3 -2 9 -12 12 -14 6 -15 5 -6 -5z"/>
<path d="M2970 2096 c0 -2 7 -7 16 -10 8 -3 12 -2 9 4 -6 10 -25 14 -25 6z"/>
<path d="M4471 2071 c-9 -16 -7 -17 15 -13 19 3 22 7 13 18 -15 18 -16 18 -28
-5z"/>
<path d="M2960 2069 c0 -5 5 -7 10 -4 6 3 10 8 10 11 0 2 -4 4 -10 4 -5 0 -10
-5 -10 -11z"/>
<path d="M3679 2063 c-13 -16 -12 -17 4 -4 9 7 17 15 17 17 0 8 -8 3 -21 -13z"/>
<path d="M3830 2069 c0 -5 5 -7 10 -4 6 3 10 8 10 11 0 2 -4 4 -10 4 -5 0 -10
-5 -10 -11z"/>
<path d="M4400 2070 c-9 -6 -10 -10 -3 -10 6 0 15 5 18 10 8 12 4 12 -15 0z"/>
<path d="M3645 2050 c10 -11 20 -20 23 -20 3 0 -3 9 -13 20 -10 11 -20 20 -23
20 -3 0 3 -9 13 -20z"/>
<path d="M4562 2024 c41 -41 61 -39 37 4 -10 18 -24 28 -44 30 l-30 3 37 -37z"/>
<path d="M3704 2036 c-10 -8 -16 -17 -13 -20 3 -3 14 3 24 14 21 23 17 26 -11
6z"/>
<path d="M3835 2041 c-3 -5 -2 -12 3 -15 5 -3 9 1 9 9 0 17 -3 19 -12 6z"/>
<path d="M1990 2031 c0 -5 5 -13 10 -16 6 -3 10 -2 10 4 0 5 -4 13 -10 16 -5
3 -10 2 -10 -4z"/>
<path d="M4395 2020 c-16 -17 -16 -20 -3 -15 9 4 19 13 22 21 7 19 2 18 -19
-6z"/>
<path d="M3075 1990 c3 -5 8 -10 11 -10 2 0 4 5 4 10 0 6 -5 10 -11 10 -5 0
-7 -4 -4 -10z"/>
<path d="M3910 1989 c0 -5 5 -7 10 -4 6 3 10 8 10 11 0 2 -4 4 -10 4 -5 0 -10
-5 -10 -11z"/>
<path d="M2070 1970 c0 -5 5 -10 11 -10 5 0 7 5 4 10 -3 6 -8 10 -11 10 -2 0
-4 -4 -4 -10z"/>
<path d="M4590 1971 c0 -10 29 -36 34 -30 1 2 -6 12 -16 22 -10 9 -18 13 -18
8z"/>
<path d="M5328 1947 c-21 -12 -38 -26 -38 -30 0 -4 18 3 40 15 22 13 40 26 40
31 0 9 1 10 -42 -16z"/>
<path d="M4038 1942 c9 -10 19 -17 21 -16 6 5 -20 34 -30 34 -5 0 -1 -8 9 -18z"/>
<path d="M2180 1921 c0 -4 11 -14 25 -21 19 -10 22 -16 13 -22 -10 -7 -9 -8 2
-6 8 1 26 -4 40 -11 25 -14 25 -14 6 7 -22 26 -86 65 -86 53z"/>
<path d="M2250 1927 c0 -2 10 -15 23 -28 23 -24 54 -38 42 -20 -7 12 -65 54
-65 48z"/>
<path d="M4090 1891 c0 -6 4 -13 10 -16 6 -3 7 1 4 9 -7 18 -14 21 -14 7z"/>
<path d="M4252 1873 c-12 -14 -19 -29 -16 -34 3 -6 0 -17 -7 -25 -6 -8 -9 -17
-5 -21 3 -3 6 -1 6 6 0 7 5 9 11 5 8 -5 10 1 7 20 -3 14 -1 26 5 26 6 0 7 3 3
7 -3 4 3 12 15 19 12 6 18 14 13 17 -5 3 -19 -6 -32 -20z"/>
<path d="M2335 1860 c3 -5 8 -10 11 -10 2 0 4 5 4 10 0 6 -5 10 -11 10 -5 0
-7 -4 -4 -10z"/>
<path d="M3515 1860 c-3 -5 -1 -10 4 -10 6 0 11 5 11 10 0 6 -2 10 -4 10 -3 0
-8 -4 -11 -10z"/>
<path d="M2300 1852 c0 -12 14 -27 35 -38 44 -24 140 -77 148 -81 5 -3 0 -14
-10 -26 l-18 -21 29 20 29 21 56 -21 c31 -11 58 -23 61 -26 3 -4 14 -10 25
-14 35 -13 2 13 -56 43 -30 16 -53 34 -51 41 2 8 -3 10 -14 6 -9 -4 -60 16
-125 48 -60 30 -109 51 -109 48z"/>
<path d="M3566 1847 c3 -10 9 -15 12 -12 3 3 0 11 -7 18 -10 9 -11 8 -5 -6z"/>
<path d="M3590 1816 c0 -2 7 -7 16 -10 8 -3 12 -2 9 4 -6 10 -25 14 -25 6z"/>
<path d="M3636 1777 c3 -10 9 -15 12 -12 3 3 0 11 -7 18 -10 9 -11 8 -5 -6z"/>
<path d="M2560 1769 c0 -5 5 -7 10 -4 6 3 10 8 10 11 0 2 -4 4 -10 4 -5 0 -10
-5 -10 -11z"/>
<path d="M3360 1727 c-25 -24 -54 -49 -65 -57 -11 -8 -29 -28 -39 -45 -15 -23
-3 -16 50 30 72 62 114 103 114 111 0 12 -19 -1 -60 -39z"/>
<path d="M3784 1758 c1 -7 5 -19 10 -26 5 -8 3 -12 -6 -10 -7 2 -12 -5 -11
-16 1 -11 -5 -25 -13 -33 -10 -11 -14 -11 -14 -2 0 7 -3 10 -6 6 -3 -3 -1 -13
4 -23 6 -10 6 -29 1 -46 -7 -26 -6 -28 12 -23 17 6 18 4 9 -21 -6 -15 -9 -29
-6 -31 10 -10 24 35 29 88 2 31 8 62 12 69 6 9 4 11 -6 5 -12 -8 -12 -6 0 8 8
10 11 27 7 42 -6 25 -26 36 -22 13z"/>
<path d="M4160 1761 c0 -5 24 -30 53 -55 28 -26 64 -59 80 -73 15 -15 30 -23
34 -20 3 4 -11 23 -33 43 -21 19 -58 53 -81 75 -42 40 -53 46 -53 30z"/>
<path d="M2700 1713 c8 -3 37 -14 63 -25 27 -10 46 -14 43 -9 -6 10 -93 41
-110 40 -6 0 -4 -3 4 -6z"/>
<path d="M3847 1680 c3 -11 7 -20 9 -20 2 0 4 9 4 20 0 11 -4 20 -9 20 -5 0
-7 -9 -4 -20z"/>
<path d="M2720 1668 c0 -6 3 -8 6 -5 4 3 15 2 25 -4 11 -6 19 -6 19 0 0 9 -23
21 -41 21 -5 0 -9 -5 -9 -12z"/>
<path d="M2839 1653 c-13 -16 -12 -17 4 -4 9 7 17 15 17 17 0 8 -8 3 -21 -13z"/>
<path d="M2803 1639 c14 -10 31 -19 39 -18 7 0 3 4 -10 10 -13 5 -21 12 -18
17 2 4 -4 9 -15 9 -18 2 -18 0 4 -18z"/>
<path d="M3890 1635 c-33 -19 -21 -19 21 0 19 8 27 14 19 14 -8 0 -26 -6 -40
-14z"/>
<path d="M2893 1615 c0 -8 4 -12 9 -9 4 3 8 9 8 15 0 5 -4 9 -8 9 -5 0 -9 -7
-9 -15z"/>
<path d="M2996 1618 c3 -4 9 -8 15 -8 5 0 9 4 9 8 0 5 -7 9 -15 9 -8 0 -12 -4
-9 -9z"/>
<path d="M2925 1610 c3 -5 0 -10 -7 -10 -13 -1 18 -23 37 -26 20 -4 120 -46
132 -56 6 -5 9 -16 6 -24 -3 -8 -1 -14 5 -14 5 0 13 7 16 16 3 8 10 12 16 9 6
-4 7 -12 3 -18 -5 -9 -3 -9 8 -1 22 18 177 2 191 -19 6 -9 8 -9 8 1 0 9 10 11
33 7 17 -3 59 -8 92 -9 58 -4 161 -15 194 -21 9 -2 22 -4 30 -4 8 -1 11 -7 7
-17 -6 -15 -4 -15 10 -3 14 11 17 10 26 -4 5 -10 14 -14 20 -11 7 4 8 2 4 -5
-4 -6 -12 -9 -17 -6 -5 4 -9 1 -9 -4 0 -6 7 -11 15 -11 8 0 15 -4 15 -10 0 -5
5 -10 11 -10 6 0 8 7 5 16 -4 10 -2 13 6 8 6 -4 8 -3 5 4 -11 17 3 40 28 44
18 4 22 1 17 -11 -5 -13 -3 -14 9 -4 8 7 28 10 44 7 76 -12 281 -11 313 2 17
7 32 10 32 7 0 -3 6 0 14 6 10 8 16 9 21 2 4 -7 10 -7 19 2 10 9 11 14 2 19
-7 5 -3 8 9 9 11 1 4 5 -15 8 -19 4 -39 5 -45 2 -5 -3 -37 -6 -70 -7 -58 -2
-59 -1 -25 10 19 6 36 17 38 25 3 12 0 12 -12 1 -10 -7 -16 -8 -16 -2 0 9 -52
1 -64 -10 -1 -2 -10 3 -19 11 -10 8 -17 9 -17 3 0 -13 -78 -10 -99 3 -10 6
-12 4 -6 -5 6 -9 4 -11 -5 -5 -21 13 -114 14 -129 2 -12 -10 -13 -9 -6 2 6 11
1 12 -26 7 -19 -4 -91 -8 -161 -9 -71 -1 -128 -5 -128 -9 0 -4 -7 -5 -15 -2
-8 4 -12 11 -8 18 3 6 3 8 -1 4 -4 -3 -22 -2 -39 4 -18 5 -48 11 -67 13 -19 2
-42 6 -50 8 -8 2 -37 7 -64 12 -42 7 -47 10 -33 20 9 7 17 16 17 20 0 5 -9 0
-21 -11 -27 -25 -71 -26 -139 -3 -30 10 -65 20 -77 22 -12 2 -26 6 -29 10 -11
11 -46 8 -39 -3z m60 -20 c6 -1 12 -3 13 -5 2 -2 -4 -2 -15 0 -10 2 -26 4 -36
4 -10 1 -15 6 -12 11 4 6 13 7 23 1 9 -5 22 -10 27 -11z m455 -85 c0 -1 -19
-3 -42 -3 -34 1 -38 2 -18 7 22 6 60 4 60 -4z"/>
<path d="M3045 1606 c11 -8 24 -12 28 -9 11 7 -12 23 -32 23 -11 0 -9 -4 4
-14z"/>
<path d="M3110 1589 c0 -5 9 -9 20 -9 11 0 20 2 20 4 0 2 -9 6 -20 9 -11 3
-20 1 -20 -4z"/>
<path d="M4340 1596 c0 -2 7 -9 15 -16 9 -7 15 -8 15 -2 0 5 -7 12 -15 16 -8
3 -15 4 -15 2z"/>
<path d="M4763 1585 c-10 -11 -9 -13 6 -12 11 1 17 7 14 14 -6 16 -5 16 -20
-2z"/>
<path d="M4484 1545 c0 -14 3 -25 8 -25 4 0 5 -6 2 -14 -3 -8 -1 -17 4 -20 8
-5 8 10 -1 56 -5 28 -13 29 -13 3z"/>
<path d="M4417 1533 c-14 -13 -6 -19 23 -19 29 0 39 9 21 20 -5 4 -12 0 -14
-6 -4 -10 -6 -10 -6 0 -1 13 -14 16 -24 5z"/>
<path d="M4306 1507 c-19 -20 -19 -20 10 -12 16 4 39 8 51 9 12 1 24 4 27 9 3
4 4 5 0 3 -3 -2 -19 -1 -37 3 -25 6 -36 3 -51 -12z"/>
<path d="M4190 1512 c0 -4 10 -13 23 -21 22 -14 22 -14 3 8 -20 22 -26 25 -26
13z"/>
<path d="M3856 1396 c6 -16 54 -51 53 -39 0 5 -13 18 -30 31 -19 15 -27 18
-23 8z"/>
<path d="M3634 1355 c-9 -14 -15 -28 -12 -30 2 -2 12 9 22 25 21 36 13 40 -10
5z"/>
<path d="M3753 1344 c-14 -6 20 -44 39 -44 7 0 2 7 -10 16 -12 8 -20 20 -17
25 7 10 6 10 -12 3z"/>
<path d="M3920 1344 c0 -5 7 -18 15 -28 8 -11 15 -16 15 -10 0 5 -7 18 -15 28
-8 11 -15 16 -15 10z"/>
<path d="M3560 1275 c-7 -8 -8 -15 -2 -15 5 0 15 7 22 15 7 8 8 15 2 15 -5 0
-15 -7 -22 -15z"/>
<path d="M3520 1235 c-7 -9 -8 -15 -2 -15 5 0 12 7 16 15 3 8 4 15 2 15 -2 0
-9 -7 -16 -15z"/>
<path d="M3487 1203 c-4 -3 -7 -11 -7 -17 0 -6 5 -5 12 2 6 6 9 14 7 17 -3 3
-9 2 -12 -2z"/>
<path d="M3793 1154 c0 -7 3 -12 5 -9 3 3 11 0 19 -6 9 -8 13 -8 13 -1 0 6 -8
16 -18 21 -14 8 -19 6 -19 -5z"/>
<path d="M3845 1110 c3 -5 16 -15 28 -21 22 -12 22 -12 3 10 -19 21 -43 30
-31 11z"/>
<path d="M3650 1095 c-8 -9 -8 -15 -2 -15 12 0 26 19 19 26 -2 2 -10 -2 -17
-11z"/>
<path d="M3754 795 c0 -14 6 -25 12 -25 7 0 9 10 6 25 -6 32 -20 32 -18 0z"/>
<path d="M3760 750 c-9 -6 -10 -10 -3 -10 6 0 15 5 18 10 8 12 4 12 -15 0z"/>
</g>
</svg>
